<?xml version="1.0" encoding="UTF-8" standalone="no"?>
<!-- Generator: Gravit.io -->

<svg
   xmlns:dc="http://purl.org/dc/elements/1.1/"
   xmlns:cc="http://creativecommons.org/ns#"
   xmlns:rdf="http://www.w3.org/1999/02/22-rdf-syntax-ns#"
   xmlns:svg="http://www.w3.org/2000/svg"
   xmlns="http://www.w3.org/2000/svg"
   xmlns:sodipodi="http://sodipodi.sourceforge.net/DTD/sodipodi-0.dtd"
   xmlns:inkscape="http://www.inkscape.org/namespaces/inkscape"
   style="isolation:isolate"
   viewBox="0 0 48 48"
   width="48"
   height="48"
   version="1.1"
   id="svg33"
   sodipodi:docname="folder-pictures.svg"
   inkscape:version="0.92.4 5da689c313, 2019-01-14">
  <metadata
     id="metadata37">
    <rdf:RDF>
      <cc:Work
         rdf:about="">
        <dc:format>image/svg+xml</dc:format>
        <dc:type
           rdf:resource="http://purl.org/dc/dcmitype/StillImage" />
      </cc:Work>
    </rdf:RDF>
  </metadata>
  <sodipodi:namedview
     pagecolor="#ffffff"
     bordercolor="#666666"
     borderopacity="1"
     objecttolerance="10"
     gridtolerance="10"
     guidetolerance="10"
     inkscape:pageopacity="0"
     inkscape:pageshadow="2"
     inkscape:window-width="1366"
     inkscape:window-height="700"
     id="namedview35"
     showgrid="false"
     inkscape:zoom="4.9166667"
     inkscape:cx="24"
     inkscape:cy="24"
     inkscape:window-x="0"
     inkscape:window-y="0"
     inkscape:window-maximized="1"
     inkscape:current-layer="svg33" />
  <defs
     id="defs5">
    <clipPath
       id="_clipPath_iskGEZ4CxZaUTaEBNJXpG6gJ5IpABjWX">
      <rect
         width="48"
         height="48"
         id="rect2" />
    </clipPath>
  </defs>
  <g
     clip-path="url(#_clipPath_iskGEZ4CxZaUTaEBNJXpG6gJ5IpABjWX)"
     id="g31">
    <linearGradient
       id="_lgradient_26"
       x1="-0.04632800608827978"
       y1="0.15974072496964337"
       x2="0.8522006595636732"
       y2="0.7102370619103313"
       gradientTransform="matrix(45,0,0,30.763,1.229,15.445)"
       gradientUnits="userSpaceOnUse">
      <stop
         offset="3.0434782608695654%"
         stop-opacity="1"
         style="stop-color:#00ffd9"
         id="stop7" />
      <stop
         offset="98.26086956521739%"
         stop-opacity="1"
         style="stop-color:#00ffb8"
         id="stop9" />
    </linearGradient>
    <path
       d=" M 1.545 46.208 L 45.923 46.198 C 46.092 46.198 46.229 46.061 46.229 45.892 L 46.229 15.772 C 46.229 15.603 46.092 15.466 45.923 15.465 L 20.107 15.445 L 15.886 18.651 C 15.818 18.702 15.695 18.743 15.61 18.743 L 1.229 18.688 L 1.238 45.902 C 1.238 46.071 1.376 46.208 1.545 46.208 Z "
       fill="url(#_lgradient_26)"
       vector-effect="non-scaling-stroke"
       stroke-width="1"
       stroke="#00ffb8"
       stroke-linejoin="miter"
       stroke-linecap="square"
       stroke-miterlimit="3"
       id="path12" />
    <linearGradient
       id="_lgradient_27"
       x1="0"
       y1="0.5"
       x2="1"
       y2="0.5"
       gradientTransform="matrix(18.873,0,0,6.535,1.243,12.208)"
       gradientUnits="userSpaceOnUse">
      <stop
         offset="3.0434782608695654%"
         stop-opacity="1"
         style="stop-color:#00ffd9"
         id="stop14" />
      <stop
         offset="98.26086956521739%"
         stop-opacity="1"
         style="stop-color:#00ffb8"
         id="stop16" />
    </linearGradient>
    <path
       d=" M 20.116 15.456 L 15.887 12.3 C 15.819 12.249 15.695 12.208 15.61 12.208 L 1.554 12.208 C 1.385 12.208 1.247 12.346 1.247 12.515 L 1.243 18.683 L 15.8 18.743 L 20.116 15.456 Z "
       fill="url(#_lgradient_27)"
       vector-effect="non-scaling-stroke"
       stroke-width="1"
       stroke="#00ffb8"
       stroke-linejoin="miter"
       stroke-linecap="square"
       stroke-miterlimit="3"
       id="path19" />
    <path
       d=" M 28.975 25.921 C 28.779 26.117 28.779 26.436 28.975 26.632 C 29.172 26.829 29.491 26.829 29.687 26.632 C 29.883 26.436 29.883 26.117 29.687 25.921 C 29.491 25.724 29.172 25.724 28.975 25.921 Z "
       fill="rgb(255,255,255)"
       id="path21" />
    <path
       d=" M 35.366 23.762 L 34.863 23.762 L 34.863 23.259 C 34.863 22.427 34.186 21.75 33.354 21.75 L 32.349 21.75 C 31.517 21.75 30.84 22.427 30.84 23.259 L 30.84 23.762 L 19.172 23.762 L 19.172 23.259 C 19.172 22.427 18.495 21.75 17.663 21.75 L 14.646 21.75 C 13.814 21.75 13.137 22.427 13.137 23.259 L 13.137 23.762 L 12.634 23.762 C 11.802 23.762 11.125 24.439 11.125 25.271 L 11.125 40.358 C 11.125 41.19 11.802 41.867 12.634 41.867 L 35.366 41.867 C 36.198 41.867 36.875 41.19 36.875 40.358 L 36.875 25.271 C 36.875 24.439 36.198 23.762 35.366 23.762 Z  M 31.846 23.259 C 31.846 22.981 32.071 22.756 32.349 22.756 L 33.354 22.756 C 33.632 22.756 33.857 22.981 33.857 23.259 L 33.857 23.762 L 31.846 23.762 L 31.846 23.259 Z  M 14.143 23.259 C 14.143 22.981 14.368 22.756 14.646 22.756 L 17.663 22.756 C 17.94 22.756 18.166 22.981 18.166 23.259 L 18.166 23.762 L 14.143 23.762 L 14.143 23.259 Z  M 12.131 28.791 L 14.229 28.791 C 14.437 29.376 14.996 29.797 15.651 29.797 C 16.307 29.797 16.866 29.376 17.074 28.79 L 19.285 28.79 C 18.126 29.996 17.462 31.609 17.462 33.317 C 17.462 35.644 18.684 37.691 20.52 38.85 L 12.131 38.85 L 12.131 28.791 Z  M 15.148 28.288 C 15.148 28.011 15.374 27.785 15.651 27.785 C 15.929 27.785 16.154 28.011 16.154 28.288 C 16.154 28.565 15.929 28.791 15.651 28.791 C 15.374 28.791 15.148 28.565 15.148 28.288 Z  M 24 27.785 C 27.05 27.785 29.532 30.268 29.532 33.317 C 29.532 36.368 27.05 38.85 24 38.85 C 20.95 38.85 18.468 36.368 18.468 33.317 C 18.468 30.264 20.954 27.785 24 27.785 Z  M 35.869 40.358 C 35.869 40.636 35.644 40.861 35.366 40.861 L 12.634 40.861 C 12.356 40.861 12.131 40.636 12.131 40.358 L 12.131 39.855 L 35.869 39.855 L 35.869 40.358 Z  M 35.869 38.85 L 27.48 38.85 C 29.316 37.691 30.538 35.644 30.538 33.317 C 30.538 31.609 29.874 29.996 28.715 28.791 L 35.869 28.791 L 35.869 38.85 Z  M 35.869 27.785 L 27.478 27.785 C 26.436 27.127 25.237 26.779 24 26.779 C 22.763 26.779 21.564 27.127 20.522 27.785 L 17.074 27.785 C 16.866 27.2 16.307 26.779 15.651 26.779 C 14.996 26.779 14.437 27.2 14.229 27.785 L 12.131 27.785 L 12.131 25.271 C 12.131 24.993 12.356 24.768 12.634 24.768 L 35.366 24.768 C 35.644 24.768 35.869 24.993 35.869 25.271 L 35.869 27.785 Z "
       fill="rgb(255,255,255)"
       id="path23" />
    <path
       d=" M 24 37.844 C 26.496 37.844 28.526 35.813 28.526 33.317 C 28.526 30.822 26.496 28.791 24 28.791 C 21.504 28.791 19.474 30.822 19.474 33.317 C 19.474 35.813 21.504 37.844 24 37.844 Z  M 24 29.797 C 25.941 29.797 27.521 31.376 27.521 33.317 C 27.521 35.259 25.941 36.838 24 36.838 C 22.059 36.838 20.479 35.259 20.479 33.317 C 20.479 31.376 22.059 29.797 24 29.797 Z "
       fill="rgb(255,255,255)"
       id="path25" />
    <path
       d=" M 24 31.809 C 24.832 31.809 25.509 32.485 25.509 33.317 C 25.509 33.595 25.734 33.82 26.012 33.82 C 26.29 33.82 26.515 33.595 26.515 33.317 C 26.515 31.931 25.387 30.803 24 30.803 C 23.722 30.803 23.497 31.028 23.497 31.306 C 23.497 31.583 23.722 31.809 24 31.809 Z "
       fill="rgb(255,255,255)"
       id="path27" />
    <path
       d=" M 33.354 25.773 L 31.343 25.773 C 31.065 25.773 30.84 25.999 30.84 26.276 C 30.84 26.554 31.065 26.779 31.343 26.779 L 33.354 26.779 C 33.632 26.779 33.857 26.554 33.857 26.276 C 33.857 25.999 33.632 25.773 33.354 25.773 Z "
       fill="rgb(255,255,255)"
       id="path29" />
  </g>
  <path
     style="fill:#ff00ff;fill-opacity:1;stroke:#ff00ff;stroke-width:0.00833898;stroke-miterlimit:4;stroke-dasharray:none;stroke-opacity:0"
     d="m 1.3518952,38.633898 c -0.017136,-4.166949 -0.061668,-11.054237 -0.09896,-15.305084 -0.037293,-4.250848 -0.015056,-8.483899 0.049414,-9.40678 l 0.1172184,-1.677966 h 7.1075418 c 7.7206346,0 7.3814066,-0.04543 8.7182696,1.167621 0.278518,0.252724 0.561972,0.459497 0.629897,0.459497 0.06792,0 0.343436,0.181355 0.612247,0.40301 0.829682,0.684135 0.886636,0.728163 1.200613,0.92812 0.181369,0.115506 5.624835,0.235532 13.423728,0.295989 L 46.230508,15.6 46.28267,30.739727 c 0.04126,11.977224 -0.0012,15.173617 -0.20339,15.301971 -0.140553,0.08923 -10.254704,0.163645 -22.47589,0.165358 l -22.2203392,0.0031 z m 35.1251458,2.805855 0.49923,-0.499229 v -7.931878 c 0,-5.379926 -0.07265,-8.091335 -0.225817,-8.427495 -0.224783,-0.493345 -0.949581,-0.947253 -1.512566,-0.947253 -0.173194,0 -0.295515,-0.194595 -0.295515,-0.470123 0,-1.018692 -1.20624,-1.718304 -2.578639,-1.495594 -0.894456,0.14515 -1.425676,0.603505 -1.595484,1.376638 l -0.129384,0.589079 H 24.96011 c -5.488869,0 -5.678754,-0.01322 -5.678754,-0.395438 0,-0.21749 -0.220889,-0.652236 -0.490864,-0.966101 -0.479778,-0.557775 -0.539014,-0.570664 -2.622715,-0.570664 -2.366462,0 -2.84507,0.207737 -3.094443,1.343124 -0.08632,0.392993 -0.255634,0.589079 -0.508661,0.589079 -0.208603,0 -0.636076,0.221142 -0.949941,0.491425 l -0.570664,0.491425 0.06471,8.20349 0.06471,8.203491 0.505958,0.457627 0.505957,0.457627 H 24.081612 35.97782 Z"
     id="path844"
     inkscape:connector-curvature="0" />
  <path
     style="fill:#ff00ff;fill-opacity:1;stroke:#ff00ff;stroke-width:0.00833898;stroke-miterlimit:4;stroke-dasharray:none;stroke-opacity:0"
     d="m 15.16953,23.687104 c 0.591038,-0.04122 1.506292,-0.04078 2.033898,9.63e-4 0.527606,0.04174 0.04403,0.07547 -1.074614,0.07494 -1.118645,-5.3e-4 -1.550322,-0.03468 -0.959284,-0.0759 z"
     id="path846"
     inkscape:connector-curvature="0" />
  <path
     style="fill:#ff00ff;fill-opacity:1;stroke:#ff00ff;stroke-width:0.00833898;stroke-miterlimit:4;stroke-dasharray:none;stroke-opacity:0"
     d="m 12.162712,33.80339 v -4.881356 h 0.936741 c 0.702454,0 1.087879,0.127174 1.541029,0.508474 0.332358,0.279661 0.74057,0.508475 0.907138,0.508475 0.413845,0 1.15615,-0.40654 1.354012,-0.741556 0.158584,-0.26851 1.972944,-0.41036 1.972944,-0.154248 0,0.06663 -0.184977,0.380921 -0.41106,0.698426 -1.59949,2.246276 -1.287396,5.887518 0.686279,8.006915 l 0.871854,0.936226 H 16.09218 12.162712 Z"
     id="path848"
     inkscape:connector-curvature="0" />
  <path
     style="fill:#ff00ff;fill-opacity:1;stroke:#ff00ff;stroke-width:0.00833898;stroke-miterlimit:4;stroke-dasharray:none;stroke-opacity:0"
     d="m 28.90919,37.661744 c 0.915312,-1.018048 1.428655,-2.174401 1.675089,-3.773296 0.161383,-1.047075 -0.335325,-3.049667 -1.028948,-4.148437 l -0.516366,-0.817977 h 3.358483 3.358484 v 4.881356 4.881356 h -3.883255 -3.883254 z"
     id="path850"
     inkscape:connector-curvature="0" />
  <path
     style="fill:#ff00ff;fill-opacity:1;stroke:#ff00ff;stroke-width:0.00833898;stroke-miterlimit:4;stroke-dasharray:none;stroke-opacity:0"
     d="m 23.349153,36.649951 c -1.61976,-0.281764 -2.731235,-1.647094 -2.731235,-3.355036 0,-3.581289 4.947532,-4.653828 6.48845,-1.406583 1.166619,2.458466 -1.025649,5.236785 -3.757215,4.761619 z m 3.215731,-3.392117 c 0.151369,-1.06326 -1.246109,-2.502855 -2.431259,-2.504531 -0.526412,-7.45e-4 -0.900972,0.459753 -0.673424,0.827932 0.0618,0.1 0.405034,0.257653 0.762737,0.350343 0.61037,0.158163 0.966856,0.594633 1.249742,1.530145 0.160569,0.531006 1.010161,0.372408 1.092204,-0.203889 z"
     id="path852"
     inkscape:connector-curvature="0" />
  <path
     style="fill:#ff00ff;fill-opacity:1;stroke:#ff00ff;stroke-width:0.00833898;stroke-miterlimit:4;stroke-dasharray:none;stroke-opacity:0"
     d="m 21.563352,38.160457 c -1.873526,-0.933617 -2.943013,-2.701748 -2.943013,-4.865542 0,-4.827076 5.800061,-7.185411 9.231782,-3.75369 2.020735,2.020735 2.116168,5.108874 0.226116,7.316974 -1.558318,1.820544 -4.353572,2.379286 -6.514885,1.302258 z m 4.339524,-0.67289 c 1.735326,-0.788208 2.972494,-3.063188 2.637341,-4.849704 -0.615315,-3.279909 -4.067948,-4.88945 -6.91248,-3.222443 -1.334027,0.781792 -2.005405,1.88979 -2.106427,3.476307 -0.04498,0.706353 0.03134,1.619792 0.170592,2.041721 0.317907,0.963265 1.788683,2.450644 2.676075,2.706284 1.105461,0.31846 2.644638,0.252204 3.534899,-0.152165 z"
     id="path854"
     inkscape:connector-curvature="0" />
  <path
     style="fill:#ff00ff;fill-opacity:1;stroke:#ff00ff;stroke-width:0.00833898;stroke-miterlimit:4;stroke-dasharray:none;stroke-opacity:0"
     d="m 12.204266,26.328814 0.06014,-1.372882 h 11.694915 11.694915 l 0.06014,1.372882 0.06014,1.372881 h -4.140582 c -3.853909,0 -4.203074,-0.03092 -5.043191,-0.446571 -1.292429,-0.639437 -3.768156,-0.643936 -5.148803,-0.0094 -0.7593,0.348992 -1.365353,0.455927 -2.583975,0.455927 -1.426968,0 -1.644735,-0.05272 -2.100494,-0.508475 -0.279661,-0.279661 -0.701703,-0.508474 -0.93787,-0.508474 -0.524161,0 -1.260369,0.368739 -1.480557,0.741556 -0.10226,0.173145 -0.53992,0.275393 -1.178784,0.275393 h -1.016136 z m 17.551666,-0.05085 c 0,-0.579789 -0.641954,-0.825621 -0.835935,-0.320116 -0.185043,0.482215 0.07678,0.96922 0.479388,0.891685 0.225157,-0.04336 0.356547,-0.253989 0.356547,-0.571569 z m 3.847772,0.486714 c 0.176947,-0.0679 0.32172,-0.286922 0.32172,-0.486714 0,-0.472317 -0.395781,-0.610169 -1.751831,-0.610169 -0.797614,0 -1.141219,0.08554 -1.225466,0.305084 -0.254621,0.663532 0.08242,0.915255 1.225466,0.915255 0.609616,0 1.253166,-0.05555 1.430111,-0.123456 z"
     id="path856"
     inkscape:connector-curvature="0" />
  <path
     style="fill:#ff00ff;fill-opacity:1;stroke:#ff00ff;stroke-width:0.00833898;stroke-miterlimit:4;stroke-dasharray:none;stroke-opacity:0"
     d="m 31.930245,23.277966 c 0.09848,-0.511368 1.654589,-0.511368 1.753069,0 0.05734,0.297751 -0.08594,0.355932 -0.876534,0.355932 -0.790597,0 -0.933877,-0.05818 -0.876535,-0.355932 z"
     id="path858"
     inkscape:connector-curvature="0" />
  <path
     style="fill:#ff00ff;fill-opacity:1;stroke:#ff00ff;stroke-width:0.00833898;stroke-miterlimit:4;stroke-dasharray:none;stroke-opacity:0"
     d="m 14.23533,23.277966 c 0.05921,-0.307444 0.317154,-0.355932 1.893484,-0.355932 1.576329,0 1.834275,0.04849 1.893483,0.355932 0.06146,0.319122 -0.134364,0.355932 -1.893483,0.355932 -1.75912,0 -1.954942,-0.03681 -1.893484,-0.355932 z"
     id="path860"
     inkscape:connector-curvature="0" />
  <path
     style="fill:#ff00ff;fill-opacity:1;stroke:#ff00ff;stroke-width:0.00833898;stroke-miterlimit:4;stroke-dasharray:none;stroke-opacity:0"
     d="m 12.298305,40.583051 c -0.07458,-0.07458 -0.135593,-0.257627 -0.135593,-0.40678 0,-0.222871 2.101695,-0.271186 11.79661,-0.271186 11.661016,0 11.79661,0.0047 11.79661,0.406779 0,0.40205 -0.135594,0.40678 -11.661017,0.40678 -6.413559,0 -11.722034,-0.06102 -11.79661,-0.135593 z"
     id="path862"
     inkscape:connector-curvature="0" />
</svg>
