<?xml version="1.0" encoding="UTF-8" standalone="no"?>
<!-- Generator: Gravit.io -->

<svg
   xmlns:dc="http://purl.org/dc/elements/1.1/"
   xmlns:cc="http://creativecommons.org/ns#"
   xmlns:rdf="http://www.w3.org/1999/02/22-rdf-syntax-ns#"
   xmlns:svg="http://www.w3.org/2000/svg"
   xmlns="http://www.w3.org/2000/svg"
   xmlns:sodipodi="http://sodipodi.sourceforge.net/DTD/sodipodi-0.dtd"
   xmlns:inkscape="http://www.inkscape.org/namespaces/inkscape"
   style="isolation:isolate"
   viewBox="0 0 48 48"
   width="48"
   height="48"
   version="1.1"
   id="svg29"
   sodipodi:docname="folder-videos.svg"
   inkscape:version="0.92.4 5da689c313, 2019-01-14">
  <metadata
     id="metadata33">
    <rdf:RDF>
      <cc:Work
         rdf:about="">
        <dc:format>image/svg+xml</dc:format>
        <dc:type
           rdf:resource="http://purl.org/dc/dcmitype/StillImage" />
      </cc:Work>
    </rdf:RDF>
  </metadata>
  <sodipodi:namedview
     pagecolor="#ffffff"
     bordercolor="#666666"
     borderopacity="1"
     objecttolerance="10"
     gridtolerance="10"
     guidetolerance="10"
     inkscape:pageopacity="0"
     inkscape:pageshadow="2"
     inkscape:window-width="1366"
     inkscape:window-height="700"
     id="namedview31"
     showgrid="false"
     inkscape:zoom="4.9166667"
     inkscape:cx="-15.661017"
     inkscape:cy="24"
     inkscape:window-x="0"
     inkscape:window-y="0"
     inkscape:window-maximized="1"
     inkscape:current-layer="svg29" />
  <defs
     id="defs5">
    <clipPath
       id="_clipPath_QdYnmgttXNEutL4BViEfCZB7XzuIxEaE">
      <rect
         width="48"
         height="48"
         id="rect2" />
    </clipPath>
  </defs>
  <g
     clip-path="url(#_clipPath_QdYnmgttXNEutL4BViEfCZB7XzuIxEaE)"
     id="g27">
    <linearGradient
       id="_lgradient_22"
       x1="-0.04632800608827978"
       y1="0.15974072496964337"
       x2="0.8522006595636732"
       y2="0.7102370619103313"
       gradientTransform="matrix(45,0,0,30.763,1.229,15.445)"
       gradientUnits="userSpaceOnUse">
      <stop
         offset="3.0434782608695654%"
         stop-opacity="1"
         style="stop-color:#00ffd9"
         id="stop7" />
      <stop
         offset="98.26086956521739%"
         stop-opacity="1"
         style="stop-color:#00ffb8"
         id="stop9" />
    </linearGradient>
    <path
       d=" M 1.545 46.208 L 45.923 46.198 C 46.092 46.198 46.229 46.061 46.229 45.892 L 46.229 15.772 C 46.229 15.603 46.092 15.466 45.923 15.465 L 20.107 15.445 L 15.886 18.651 C 15.818 18.702 15.695 18.743 15.61 18.743 L 1.229 18.688 L 1.238 45.902 C 1.238 46.071 1.376 46.208 1.545 46.208 Z "
       fill="url(#_lgradient_22)"
       vector-effect="non-scaling-stroke"
       stroke-width="1"
       stroke="#00ffb8"
       stroke-linejoin="miter"
       stroke-linecap="square"
       stroke-miterlimit="3"
       id="path12" />
    <linearGradient
       id="_lgradient_23"
       x1="0"
       y1="0.5"
       x2="1"
       y2="0.5"
       gradientTransform="matrix(18.873,0,0,6.535,1.243,12.208)"
       gradientUnits="userSpaceOnUse">
      <stop
         offset="3.0434782608695654%"
         stop-opacity="1"
         style="stop-color:#00ffd9"
         id="stop14" />
      <stop
         offset="98.26086956521739%"
         stop-opacity="1"
         style="stop-color:#00ffb8"
         id="stop16" />
    </linearGradient>
    <path
       d=" M 20.116 15.456 L 15.887 12.3 C 15.819 12.249 15.695 12.208 15.61 12.208 L 1.554 12.208 C 1.385 12.208 1.247 12.346 1.247 12.515 L 1.243 18.683 L 15.8 18.743 L 20.116 15.456 Z "
       fill="url(#_lgradient_23)"
       vector-effect="non-scaling-stroke"
       stroke-width="1"
       stroke="#00ffb8"
       stroke-linejoin="miter"
       stroke-linecap="square"
       stroke-miterlimit="3"
       id="path19" />
    <g
       id="g25">
      <path
         d=" M 26.925 29.708 L 15.225 29.708 C 14.976 29.708 14.775 29.91 14.775 30.158 L 14.775 37.358 C 14.775 37.607 14.976 37.808 15.225 37.808 L 26.925 37.808 C 27.174 37.808 27.375 37.607 27.375 37.358 L 27.375 30.158 C 27.375 29.91 27.174 29.708 26.925 29.708 Z  M 26.475 36.908 L 15.675 36.908 L 15.675 30.608 L 26.475 30.608 L 26.475 36.908 Z "
         fill="rgb(255,255,255)"
         id="path21" />
      <path
         d=" M 37.893 28.457 C 37.443 28.224 36.901 28.263 36.49 28.559 L 32.185 31.634 C 32.101 31.554 31.991 31.509 31.875 31.508 L 30.525 31.508 L 30.525 28.808 C 30.523 27.566 29.517 26.56 28.275 26.558 L 27.375 26.558 L 27.375 23.408 C 27.375 23.16 27.173 22.958 26.925 22.958 L 15.225 22.958 C 14.976 22.958 14.775 23.16 14.775 23.408 L 14.775 26.558 L 13.875 26.558 C 12.633 26.56 11.626 27.566 11.625 28.808 L 11.625 38.708 C 11.626 39.95 12.633 40.957 13.875 40.958 L 28.275 40.958 C 29.517 40.957 30.523 39.95 30.525 38.708 L 30.525 36.008 L 31.875 36.008 C 31.991 36.008 32.101 35.963 32.185 35.882 L 36.49 38.958 C 37.097 39.392 37.94 39.251 38.373 38.644 C 38.537 38.416 38.625 38.141 38.625 37.86 L 38.625 29.657 C 38.626 29.151 38.343 28.687 37.893 28.457 Z  M 15.675 23.858 L 26.475 23.858 L 26.475 26.558 L 15.675 26.558 L 15.675 23.858 Z  M 29.625 38.708 C 29.625 39.454 29.021 40.058 28.275 40.058 L 13.875 40.058 C 13.129 40.058 12.525 39.454 12.525 38.708 L 12.525 28.808 C 12.525 28.063 13.129 27.458 13.875 27.458 L 28.275 27.458 C 29.021 27.458 29.625 28.063 29.625 28.808 L 29.625 38.708 L 29.625 38.708 Z  M 30.525 35.108 L 30.525 32.408 L 31.425 32.408 L 31.425 35.108 L 30.525 35.108 Z  M 37.725 37.86 C 37.725 38.108 37.523 38.31 37.275 38.31 C 37.181 38.31 37.089 38.28 37.013 38.226 L 32.325 34.877 L 32.325 32.64 L 37.013 29.291 C 37.215 29.147 37.496 29.193 37.641 29.395 C 37.696 29.472 37.725 29.563 37.725 29.657 L 37.725 37.86 L 37.725 37.86 Z "
         fill="rgb(255,255,255)"
         id="path23" />
    </g>
  </g>
  <path
     style="fill:#ff00ff;fill-opacity:1;stroke:#ff00ff;stroke-width:0.00833898;stroke-miterlimit:4;stroke-dasharray:none;stroke-opacity:0"
     d="M 1.33501,32.451175 C 1.3055,24.860995 1.306561,17.209322 1.33737,15.447458 l 0.056012,-3.20339 h 7.1193801 7.1193809 l 2.118351,1.594876 c 2.01636,1.518089 2.10176,1.612568 1.77376,1.96232 -0.330942,0.352889 -0.324672,0.354166 0.158292,0.03224 0.453922,-0.302566 1.763673,-0.335201 13.452816,-0.335201 11.62102,0 12.962601,0.03301 13.073388,0.321719 0.180071,0.469256 0.151539,29.943015 -0.02909,30.048133 -0.0839,0.04883 -10.196195,0.155052 -22.471769,0.236061 L 1.3886641,46.251502 Z m 27.812831,8.381404 c 1.099188,-0.459271 1.521686,-1.351566 1.522585,-3.21563 l 7.6e-4,-1.576271 h 0.784085 c 0.657296,0 1.147356,0.263107 3.030658,1.627119 2.433777,1.7627 3.125626,1.979188 3.8317,1.198985 0.357157,-0.394652 0.387456,-0.790617 0.387456,-5.063392 0,-4.272775 -0.0303,-4.66874 -0.387456,-5.063392 -0.718011,-0.793394 -1.455887,-0.573015 -3.856454,1.151793 -1.989799,1.42967 -2.274582,1.572712 -2.994456,1.504061 l -0.795533,-0.07587 v -1.422475 c 0,-2.274121 -0.84077,-3.416155 -2.514988,-3.416155 h -0.723411 l -0.05877,-1.779661 -0.05877,-1.779661 -6.101695,-0.05411 c -7.088677,-0.06287 -6.610169,-0.216832 -6.610169,2.126886 v 1.48655 h -0.62027 c -0.873969,0 -1.758755,0.511146 -2.131076,1.231135 -0.270084,0.522285 -0.308603,1.461146 -0.25768,6.280639 0.05635,5.332849 0.08383,5.693386 0.466653,6.12213 0.856264,0.958971 1.168798,0.993748 9.006533,1.002203 5.975953,0.0064 7.51271,-0.04773 8.080291,-0.284884 z"
     id="path843"
     inkscape:connector-curvature="0" />
  <path
     style="fill:#ff00ff;fill-opacity:1;stroke:#ff00ff;stroke-width:0.00833898;stroke-miterlimit:4;stroke-dasharray:none;stroke-opacity:0"
     d="M 15.823729,25.261017 V 24.040678 H 21.111864 26.4 v 1.220339 1.220339 h -5.288136 -5.288135 z"
     id="path845"
     inkscape:connector-curvature="0" />
  <path
     style="fill:#ff00ff;fill-opacity:1;stroke:#ff00ff;stroke-width:0.00833898;stroke-miterlimit:4;stroke-dasharray:none;stroke-opacity:0"
     d="M 12.886109,39.45305 C 12.61939,39.072254 12.569492,38.173293 12.569492,33.748889 v -5.252125 l 0.499229,-0.499229 0.49923,-0.49923 h 7.489413 c 6.449324,0 7.552189,0.04397 7.941448,0.316618 0.448399,0.314071 0.452035,0.361399 0.452035,5.883777 0,4.789868 -0.04462,5.611784 -0.319612,5.886772 -0.279451,0.279451 -1.300294,0.319613 -8.12406,0.319613 H 13.202727 Z M 27.37062,33.818186 c 0.04239,-3.025153 -0.0053,-3.989799 -0.20339,-4.11553 -0.142316,-0.09032 -2.883574,-0.165625 -6.091685,-0.167338 -5.034263,-0.0027 -5.876693,0.04065 -6.152542,0.316498 -0.265991,0.26599 -0.319613,0.911541 -0.319613,3.847772 0,1.940488 0.05606,3.674241 0.12457,3.852785 0.110943,0.289112 0.806274,0.318746 6.355933,0.270872 l 6.231361,-0.05375 z"
     id="path847"
     inkscape:connector-curvature="0" />
  <path
     style="fill:#ff00ff;fill-opacity:1;stroke:#ff00ff;stroke-width:0.00833898;stroke-miterlimit:4;stroke-dasharray:none;stroke-opacity:0"
     d="M 15.823729,33.80339 V 30.752542 H 21.111864 26.4 v 3.050848 3.050847 h -5.288136 -5.288135 z"
     id="path849"
     inkscape:connector-curvature="0" />
  <path
     style="fill:#ff00ff;fill-opacity:1;stroke:#ff00ff;stroke-width:0.00833898;stroke-miterlimit:4;stroke-dasharray:none;stroke-opacity:0"
     d="m 34.87242,36.594852 -2.362745,-1.672818 -0.004,-1.15341 -0.004,-1.15341 2.316314,-1.6432 c 1.273972,-0.90376 2.41804,-1.6432 2.542372,-1.6432 0.274743,0 0.324199,8.661102 0.05042,8.830305 -0.0966,0.0597 -1.238873,-0.644218 -2.538383,-1.564267 z"
     id="path851"
     inkscape:connector-curvature="0" />
  <path
     style="fill:#ff00ff;fill-opacity:1;stroke:#ff00ff;stroke-width:0.00833898;stroke-miterlimit:4;stroke-dasharray:none;stroke-opacity:0"
     d="m 30.671186,33.80339 c 0,-0.949153 0.0678,-1.220339 0.305085,-1.220339 0.237288,0 0.305085,0.271186 0.305085,1.220339 0,0.949152 -0.0678,1.220339 -0.305085,1.220339 -0.237288,0 -0.305085,-0.271187 -0.305085,-1.220339 z"
     id="path853"
     inkscape:connector-curvature="0" />
</svg>
