<?xml version="1.0" encoding="UTF-8" standalone="no"?>
<!-- Generator: Gravit.io -->

<svg
   xmlns:dc="http://purl.org/dc/elements/1.1/"
   xmlns:cc="http://creativecommons.org/ns#"
   xmlns:rdf="http://www.w3.org/1999/02/22-rdf-syntax-ns#"
   xmlns:svg="http://www.w3.org/2000/svg"
   xmlns="http://www.w3.org/2000/svg"
   xmlns:sodipodi="http://sodipodi.sourceforge.net/DTD/sodipodi-0.dtd"
   xmlns:inkscape="http://www.inkscape.org/namespaces/inkscape"
   style="isolation:isolate"
   viewBox="0 0 48 48"
   width="48"
   height="48"
   version="1.1"
   id="svg27"
   sodipodi:docname="folder-documents.svg"
   inkscape:version="0.92.4 5da689c313, 2019-01-14">
  <metadata
     id="metadata31">
    <rdf:RDF>
      <cc:Work
         rdf:about="">
        <dc:format>image/svg+xml</dc:format>
        <dc:type
           rdf:resource="http://purl.org/dc/dcmitype/StillImage" />
      </cc:Work>
    </rdf:RDF>
  </metadata>
  <sodipodi:namedview
     pagecolor="#ffffff"
     bordercolor="#666666"
     borderopacity="1"
     objecttolerance="10"
     gridtolerance="10"
     guidetolerance="10"
     inkscape:pageopacity="0"
     inkscape:pageshadow="2"
     inkscape:window-width="1366"
     inkscape:window-height="700"
     id="namedview29"
     showgrid="false"
     inkscape:zoom="4.9166667"
     inkscape:cx="24"
     inkscape:cy="24"
     inkscape:window-x="0"
     inkscape:window-y="0"
     inkscape:window-maximized="1"
     inkscape:current-layer="svg27" />
  <defs
     id="defs5">
    <clipPath
       id="_clipPath_tLv9q43HqQlNTsB4jyfcXGNAD2CT7fcP">
      <rect
         width="48"
         height="48"
         id="rect2" />
    </clipPath>
  </defs>
  <g
     clip-path="url(#_clipPath_tLv9q43HqQlNTsB4jyfcXGNAD2CT7fcP)"
     id="g25">
    <linearGradient
       id="_lgradient_32"
       x1="-0.04632800608827978"
       y1="0.15974072496964337"
       x2="0.8522006595636732"
       y2="0.7102370619103313"
       gradientTransform="matrix(45,0,0,30.763,1.229,15.445)"
       gradientUnits="userSpaceOnUse">
      <stop
         offset="3.0434782608695654%"
         stop-opacity="1"
         style="stop-color:#00ffd9"
         id="stop7" />
      <stop
         offset="98.26086956521739%"
         stop-opacity="1"
         style="stop-color:#00ffb8"
         id="stop9" />
    </linearGradient>
    <path
       d=" M 1.545 46.208 L 45.923 46.198 C 46.092 46.198 46.229 46.061 46.229 45.892 L 46.229 15.772 C 46.229 15.603 46.092 15.466 45.923 15.465 L 20.107 15.445 L 15.886 18.651 C 15.818 18.702 15.695 18.743 15.61 18.743 L 1.229 18.688 L 1.238 45.902 C 1.238 46.071 1.376 46.208 1.545 46.208 Z "
       fill="url(#_lgradient_32)"
       vector-effect="non-scaling-stroke"
       stroke-width="1"
       stroke="#00ffb8"
       stroke-linejoin="miter"
       stroke-linecap="square"
       stroke-miterlimit="3"
       id="path12" />
    <linearGradient
       id="_lgradient_33"
       x1="0"
       y1="0.5"
       x2="1"
       y2="0.5"
       gradientTransform="matrix(18.873,0,0,6.535,1.243,12.208)"
       gradientUnits="userSpaceOnUse">
      <stop
         offset="3.0434782608695654%"
         stop-opacity="1"
         style="stop-color:#00ffd9"
         id="stop14" />
      <stop
         offset="98.26086956521739%"
         stop-opacity="1"
         style="stop-color:#00ffb8"
         id="stop16" />
    </linearGradient>
    <path
       d=" M 20.116 15.456 L 15.887 12.3 C 15.819 12.249 15.695 12.208 15.61 12.208 L 1.554 12.208 C 1.385 12.208 1.247 12.346 1.247 12.515 L 1.243 18.683 L 15.8 18.743 L 20.116 15.456 Z "
       fill="url(#_lgradient_33)"
       vector-effect="non-scaling-stroke"
       stroke-width="1"
       stroke="#00ffb8"
       stroke-linejoin="miter"
       stroke-linecap="square"
       stroke-miterlimit="3"
       id="path19" />
    <g
       id="g23">
      <path
         d=" M 28.746 29.625 L 20.749 29.625 C 20.573 29.625 20.429 29.774 20.429 29.958 C 20.429 30.143 20.573 30.292 20.749 30.292 L 28.746 30.292 C 28.923 30.292 29.066 30.143 29.066 29.958 C 29.066 29.774 28.923 29.625 28.746 29.625 L 28.746 29.625 L 28.746 29.625 L 28.746 29.625 L 28.746 29.625 Z  M 20.749 27.625 L 23.948 27.625 C 24.124 27.625 24.268 27.476 24.268 27.292 C 24.268 27.107 24.124 26.958 23.948 26.958 L 20.749 26.958 C 20.573 26.958 20.429 27.107 20.429 27.292 C 20.429 27.476 20.573 27.625 20.749 27.625 L 20.749 27.625 L 20.749 27.625 L 20.749 27.625 L 20.749 27.625 Z  M 28.746 32.292 L 20.749 32.292 C 20.573 32.292 20.429 32.441 20.429 32.625 C 20.429 32.809 20.573 32.958 20.749 32.958 L 28.746 32.958 C 28.923 32.958 29.066 32.809 29.066 32.625 C 29.066 32.441 28.923 32.292 28.746 32.292 L 28.746 32.292 L 28.746 32.292 L 28.746 32.292 Z  M 28.746 34.958 L 20.749 34.958 C 20.573 34.958 20.429 35.107 20.429 35.292 C 20.429 35.476 20.573 35.625 20.749 35.625 L 28.746 35.625 C 28.923 35.625 29.066 35.476 29.066 35.292 C 29.066 35.107 28.923 34.958 28.746 34.958 L 28.746 34.958 L 28.746 34.958 Z  M 28.746 37.625 L 20.749 37.625 C 20.573 37.625 20.429 37.774 20.429 37.958 C 20.429 38.143 20.573 38.292 20.749 38.292 L 28.746 38.292 C 28.923 38.292 29.066 38.143 29.066 37.958 C 29.066 37.774 28.923 37.625 28.746 37.625 L 28.746 37.625 Z  M 27.147 24.096 L 30.026 27.096 L 30.533 27.625 L 27.147 27.625 L 27.147 24.096 L 27.147 24.096 Z  M 16.911 38.958 L 16.911 21.958 L 29.386 21.958 L 29.386 25.487 L 26.959 22.958 L 17.87 22.958 L 17.87 38.958 L 16.911 38.958 L 16.911 38.958 Z  M 18.51 40.625 L 18.51 39.625 L 18.51 23.625 L 26.507 23.625 L 26.507 28.292 L 30.985 28.292 L 30.985 40.625 L 18.51 40.625 L 18.51 40.625 Z  M 30.026 26.154 L 30.026 21.292 L 16.271 21.292 L 16.271 39.625 L 17.87 39.625 L 17.87 41.292 L 31.625 41.292 L 31.625 27.82 L 30.026 26.154 L 30.026 26.154 Z "
         fill-rule="evenodd"
         fill="rgb(255,255,255)"
         id="path21" />
    </g>
  </g>
  <path
     style="fill:#ff00ff;fill-opacity:1;stroke:#ff00ff;stroke-width:0.00833898;stroke-miterlimit:4;stroke-dasharray:none;stroke-opacity:0"
     d="m 1.3350104,32.451738 c -0.02951,-7.59049 -0.028449,-15.242416 0.00236,-17.00428 l 0.056012,-3.20339 h 7.1308263 7.1308263 l 2.150606,1.627118 2.150606,1.627119 H 33.02077 c 11.725513,0 13.077177,0.03297 13.18798,0.321719 0.180071,0.469256 0.151539,29.942977 -0.02909,30.048343 -0.0839,0.04894 -10.196195,0.155422 -22.471769,0.236624 L 1.3886648,46.252629 Z m 30.3531256,2.150854 v -6.726223 l -0.81356,-0.964833 -0.813559,-0.964834 V 23.569961 21.19322 h -6.915254 -6.915255 v 9.254238 9.254237 h 0.81356 0.813559 v 0.813559 0.81356 h 6.915254 6.915255 z"
     id="path838"
     inkscape:connector-curvature="0" />
  <path
     style="fill:#ff00ff;fill-opacity:1;stroke:#ff00ff;stroke-width:0.00833898;stroke-miterlimit:4;stroke-dasharray:none;stroke-opacity:0"
     d="M 18.671186,32.074576 V 23.633898 H 22.535593 26.4 v 2.338983 2.338983 h 2.237288 2.237288 v 6.101695 6.101695 h -6.101695 -6.101695 z m 10.334301,5.847458 c -0.06204,-0.322799 -0.446823,-0.360594 -4.133558,-0.406015 -3.923818,-0.04834 -4.783548,0.05435 -4.485983,0.535818 0.09537,0.154305 1.497313,0.226129 4.413852,0.226129 3.961035,0 4.269086,-0.02607 4.205689,-0.355932 z m 0,-2.644068 c -0.06207,-0.322937 -0.453329,-0.361047 -4.220756,-0.411107 -2.38316,-0.03167 -4.233299,0.02578 -4.342343,0.134821 -0.526294,0.526293 0.203768,0.632218 4.35741,0.632218 3.961035,0 4.269086,-0.02607 4.205689,-0.355932 z m 0.03858,-2.694915 c 0,-0.39383 -0.135593,-0.40678 -4.259183,-0.40678 -2.620061,0 -4.307559,0.07827 -4.384885,0.20339 -0.324314,0.524751 0.289534,0.61017 4.384885,0.61017 4.12359,0 4.259183,-0.01295 4.259183,-0.40678 z m 0,-2.644068 c 0,-0.39383 -0.135593,-0.40678 -4.259183,-0.40678 -2.620061,0 -4.307559,0.07827 -4.384885,0.20339 -0.324314,0.524751 0.289534,0.61017 4.384885,0.61017 4.12359,0 4.259183,-0.01295 4.259183,-0.40678 z m -4.779661,-2.644068 c 0,-0.243923 -0.363249,-0.31696 -1.81195,-0.364321 -1.771288,-0.05791 -2.343385,0.09698 -2.058828,0.557402 0.09237,0.149454 0.786458,0.208366 2.006007,0.170264 1.496087,-0.04674 1.864771,-0.118578 1.864771,-0.363345 z"
     id="path840"
     inkscape:connector-curvature="0" />
  <path
     style="fill:#ff00ff;fill-opacity:1;stroke:#ff00ff;stroke-width:0.00833898;stroke-miterlimit:4;stroke-dasharray:none;stroke-opacity:0"
     d="M 18.671186,32.074576 V 23.633898 H 22.535593 26.4 v 2.338983 2.338983 h 2.237288 2.237288 v 6.101695 6.101695 h -6.101695 -6.101695 z m 10.372882,5.920066 c 0,-0.472027 -0.491382,-0.53036 -4.440364,-0.527121 -3.690703,0.003 -4.507112,0.11613 -4.217758,0.584316 0.09534,0.154264 1.493341,0.226129 4.398939,0.226129 3.504959,0 4.259183,-0.05017 4.259183,-0.283324 z m 0,-2.644068 c 0,-0.155828 -0.144774,-0.338879 -0.32172,-0.40678 -0.556893,-0.2137 -8.18616,-0.140422 -8.322348,0.07994 -0.324314,0.524751 0.289534,0.610169 4.384885,0.610169 3.504959,0 4.259183,-0.05017 4.259183,-0.283324 z m 0,-2.767523 c 0,-0.394166 -0.135593,-0.40678 -4.372882,-0.40678 -3.508474,0 -4.372881,0.05361 -4.372881,0.271187 0,0.149152 0.06102,0.332203 0.135593,0.406779 0.07458,0.07458 2.042373,0.135594 4.372882,0.135594 4.101695,0 4.237288,-0.01302 4.237288,-0.40678 z m 0,-2.644068 c 0,-0.394166 -0.135593,-0.40678 -4.372882,-0.40678 -3.508474,0 -4.372881,0.05361 -4.372881,0.271187 0,0.149152 0.06102,0.332203 0.135593,0.406779 0.07458,0.07458 2.042373,0.135594 4.372882,0.135594 4.101695,0 4.237288,-0.01302 4.237288,-0.40678 z m -4.881356,-2.443792 c 0.587408,-0.385609 -0.235229,-0.611253 -2.03161,-0.557257 -1.458173,0.04383 -1.737101,0.107219 -1.794574,0.407829 -0.06069,0.317414 0.126152,0.355595 1.726525,0.352817 0.987016,-0.0017 1.931862,-0.09324 2.099659,-0.203389 z"
     id="path842"
     inkscape:connector-curvature="0" />
  <path
     style="fill:#ff00ff;fill-opacity:1;stroke:#ff00ff;stroke-width:0.00833898;stroke-miterlimit:4;stroke-dasharray:none;stroke-opacity:0"
     d="m 27.213559,25.927124 v -1.571181 l 1.525424,1.515243 c 0.838983,0.833384 1.525424,1.540415 1.525424,1.571181 0,0.03077 -0.686441,0.05594 -1.525424,0.05594 h -1.525424 z"
     id="path844"
     inkscape:connector-curvature="0" />
  <path
     style="fill:#ff00ff;fill-opacity:1;stroke:#ff00ff;stroke-width:0.00833898;stroke-miterlimit:4;stroke-dasharray:none;stroke-opacity:0"
     d="M 17.044068,30.447458 V 22.00678 h 6.101695 6.101695 v 1.569904 1.569904 l -1.17539,-1.163124 -1.175389,-1.163125 h -4.519526 -4.519526 v 8.033898 c 0,7.898305 -0.0069,8.033899 -0.40678,8.033899 -0.400245,0 -0.406779,-0.135594 -0.406779,-8.440678 z"
     id="path846"
     inkscape:connector-curvature="0" />
</svg>
