<?xml version="1.0" encoding="UTF-8" standalone="no"?>
<!-- Generator: Gravit.io -->

<svg
   xmlns:dc="http://purl.org/dc/elements/1.1/"
   xmlns:cc="http://creativecommons.org/ns#"
   xmlns:rdf="http://www.w3.org/1999/02/22-rdf-syntax-ns#"
   xmlns:svg="http://www.w3.org/2000/svg"
   xmlns="http://www.w3.org/2000/svg"
   xmlns:sodipodi="http://sodipodi.sourceforge.net/DTD/sodipodi-0.dtd"
   xmlns:inkscape="http://www.inkscape.org/namespaces/inkscape"
   style="isolation:isolate"
   viewBox="0 0 48 48"
   width="48"
   height="48"
   version="1.1"
   id="svg25"
   sodipodi:docname="folder-music.svg"
   inkscape:version="0.92.4 5da689c313, 2019-01-14">
  <metadata
     id="metadata29">
    <rdf:RDF>
      <cc:Work
         rdf:about="">
        <dc:format>image/svg+xml</dc:format>
        <dc:type
           rdf:resource="http://purl.org/dc/dcmitype/StillImage" />
      </cc:Work>
    </rdf:RDF>
  </metadata>
  <sodipodi:namedview
     pagecolor="#ffffff"
     bordercolor="#666666"
     borderopacity="1"
     objecttolerance="10"
     gridtolerance="10"
     guidetolerance="10"
     inkscape:pageopacity="0"
     inkscape:pageshadow="2"
     inkscape:window-width="1366"
     inkscape:window-height="700"
     id="namedview27"
     showgrid="false"
     inkscape:zoom="4.9166667"
     inkscape:cx="24"
     inkscape:cy="24"
     inkscape:window-x="0"
     inkscape:window-y="0"
     inkscape:window-maximized="1"
     inkscape:current-layer="svg25" />
  <defs
     id="defs5">
    <clipPath
       id="_clipPath_cG5STF0pEYizwOVaIpk4UE0SfgsbCRoB">
      <rect
         width="48"
         height="48"
         id="rect2" />
    </clipPath>
  </defs>
  <g
     clip-path="url(#_clipPath_cG5STF0pEYizwOVaIpk4UE0SfgsbCRoB)"
     id="g23">
    <linearGradient
       id="_lgradient_30"
       x1="-0.04632800608827978"
       y1="0.15974072496964337"
       x2="0.8522006595636732"
       y2="0.7102370619103313"
       gradientTransform="matrix(45,0,0,30.763,1.229,15.445)"
       gradientUnits="userSpaceOnUse">
      <stop
         offset="3.0434782608695654%"
         stop-opacity="1"
         style="stop-color:#00ffd9"
         id="stop7" />
      <stop
         offset="98.26086956521739%"
         stop-opacity="1"
         style="stop-color:#00ffb8"
         id="stop9" />
    </linearGradient>
    <path
       d=" M 1.545 46.208 L 45.923 46.198 C 46.092 46.198 46.229 46.061 46.229 45.892 L 46.229 15.772 C 46.229 15.603 46.092 15.466 45.923 15.465 L 20.107 15.445 L 15.886 18.651 C 15.818 18.702 15.695 18.743 15.61 18.743 L 1.229 18.688 L 1.238 45.902 C 1.238 46.071 1.376 46.208 1.545 46.208 Z "
       fill="url(#_lgradient_30)"
       vector-effect="non-scaling-stroke"
       stroke-width="1"
       stroke="#00ffb8"
       stroke-linejoin="miter"
       stroke-linecap="square"
       stroke-miterlimit="3"
       id="path12" />
    <linearGradient
       id="_lgradient_31"
       x1="0"
       y1="0.5"
       x2="1"
       y2="0.5"
       gradientTransform="matrix(18.873,0,0,6.535,1.243,12.208)"
       gradientUnits="userSpaceOnUse">
      <stop
         offset="3.0434782608695654%"
         stop-opacity="1"
         style="stop-color:#00ffd9"
         id="stop14" />
      <stop
         offset="98.26086956521739%"
         stop-opacity="1"
         style="stop-color:#00ffb8"
         id="stop16" />
    </linearGradient>
    <path
       d=" M 20.116 15.456 L 15.887 12.3 C 15.819 12.249 15.695 12.208 15.61 12.208 L 1.554 12.208 C 1.385 12.208 1.247 12.346 1.247 12.515 L 1.243 18.683 L 15.8 18.743 L 20.116 15.456 Z "
       fill="url(#_lgradient_31)"
       vector-effect="non-scaling-stroke"
       stroke-width="1"
       stroke="#00ffb8"
       stroke-linejoin="miter"
       stroke-linecap="square"
       stroke-miterlimit="3"
       id="path19" />
    <path
       d=" M 31.385 22.21 C 31.312 22.146 31.216 22.117 31.118 22.128 L 20.633 23.485 C 20.464 23.507 20.338 23.65 20.338 23.82 L 20.338 25.855 L 20.338 27.28 L 20.338 35.866 C 19.721 35.123 18.739 34.64 17.632 34.64 C 15.767 34.64 14.25 36.006 14.25 37.684 C 14.25 39.363 15.767 40.728 17.632 40.728 C 19.497 40.728 21.015 39.363 21.015 37.684 C 21.015 37.606 21.008 37.529 21.002 37.452 C 21.006 37.43 21.015 37.41 21.015 37.387 L 21.015 27.577 L 30.824 26.308 L 30.824 32.483 C 30.206 31.741 29.225 31.258 28.118 31.258 C 26.253 31.258 24.735 32.623 24.735 34.302 C 24.735 35.981 26.253 37.346 28.118 37.346 C 29.966 37.346 31.471 36.005 31.498 34.347 C 31.498 34.343 31.5 34.339 31.5 34.334 L 31.5 25.923 L 31.5 24.499 L 31.5 22.464 C 31.5 22.366 31.458 22.274 31.385 22.21 Z  M 17.632 40.052 C 16.14 40.052 14.926 38.99 14.926 37.684 C 14.926 36.379 16.14 35.317 17.632 35.317 C 19.124 35.317 20.338 36.379 20.338 37.684 C 20.338 38.99 19.124 40.052 17.632 40.052 Z  M 28.118 36.67 C 26.626 36.67 25.412 35.607 25.412 34.302 C 25.412 32.997 26.626 31.934 28.118 31.934 C 29.61 31.934 30.824 32.997 30.824 34.302 C 30.824 35.607 29.61 36.67 28.118 36.67 Z  M 21.015 26.895 L 21.015 25.855 L 21.015 24.117 L 30.824 22.848 L 30.824 24.499 L 30.824 25.626 L 21.015 26.895 Z "
       fill="rgb(255,255,255)"
       id="path21" />
  </g>
  <path
     style="fill:#ff00ff;fill-opacity:1;stroke:#ff00ff;stroke-width:0.00833898;stroke-miterlimit:4;stroke-dasharray:none;stroke-opacity:0"
     d="m 1.3350104,32.451738 c -0.02951,-7.59049 -0.028449,-15.242416 0.00236,-17.00428 l 0.056012,-3.20339 h 7.1308263 7.1308263 l 2.150606,1.627118 2.150606,1.627119 H 33.02077 c 11.725513,0 13.077177,0.03297 13.18798,0.321719 0.180071,0.469256 0.151539,29.942977 -0.02909,30.048343 -0.0839,0.04894 -10.196195,0.155422 -22.471769,0.236624 L 1.3886648,46.252629 Z m 18.1656646,7.804438 c 0.377441,-0.254355 0.894365,-0.77128 1.148722,-1.148721 0.451948,-0.670646 0.462467,-0.80808 0.462467,-6.042132 v -5.355878 l 0.457628,-0.100468 c 0.530483,-0.116462 8.46832,-1.12845 8.847457,-1.127954 0.191294,2.44e-4 0.254237,0.706813 0.254237,2.853879 v 2.853547 l -0.597122,-0.441471 c -0.893245,-0.660406 -2.408996,-0.744056 -3.542192,-0.195485 -2.120406,1.026471 -2.486001,3.397901 -0.763723,4.953876 1.909001,1.724668 5.166385,0.809406 5.727559,-1.609334 0.296455,-1.277758 0.242931,-12.134523 -0.06181,-12.53769 -0.234923,-0.310799 -0.655981,-0.283066 -5.542373,0.365043 -2.908474,0.385767 -5.356779,0.702683 -5.440678,0.704258 -0.0839,0.0016 -0.152542,2.751365 -0.152542,6.110646 v 6.107783 l -0.627209,-0.463714 c -0.874138,-0.64628 -3.135092,-0.667971 -3.984995,-0.03824 -2.708646,2.006972 -1.438112,5.566809 1.988906,5.572595 0.850587,0.0014 1.31337,-0.115306 1.825668,-0.460544 z"
     id="path836"
     inkscape:connector-curvature="0" />
  <path
     style="fill:#ff00ff;fill-opacity:1;stroke:#ff00ff;stroke-width:0.00833898;stroke-miterlimit:4;stroke-dasharray:none;stroke-opacity:0"
     d="M 1.3830508,29.219931 V 12.244068 h 7.0454411 7.0454411 l 2.180304,1.627118 2.180305,1.627119 7.503067,3.87e-4 c 4.126688,2.23e-4 10.032252,0.06045 13.123476,0.133842 l 5.620408,0.133448 0.07864,7.239039 c 0.04325,3.981471 0.04357,10.72919 8.13e-4,14.99493 l -0.07793,7.755888 -9.790613,0.120857 C 30.907471,45.943176 20.85,46.042163 13.942373,46.096678 l -12.5593222,0.09912 z m 18.7409202,10.51082 0.987893,-0.987895 v -5.49289 -5.49289 l 3.305085,-0.442684 c 1.817797,-0.243476 3.911305,-0.512758 4.652239,-0.598405 l 1.347155,-0.15572 0.125976,1.333426 c 0.06929,0.733384 0.126626,1.949753 0.127421,2.703042 l 0.0014,1.369617 -0.820147,-0.427484 c -2.379439,-1.240234 -5.600048,0.629814 -5.211218,3.025895 0.519899,3.20376 5.137682,3.958284 6.590687,1.076886 0.443951,-0.880381 0.457627,-1.088131 0.457627,-6.951573 0,-5.223921 -0.04338,-6.087449 -0.319674,-6.363746 -0.359253,-0.359276 -0.08659,-0.378391 -6.798947,0.476653 L 20.4,23.334108 l -0.05387,6.043362 -0.05387,6.043361 -0.81594,-0.42529 c -0.644418,-0.33589 -1.083063,-0.408283 -2.086655,-0.34438 -1.933436,0.123112 -3.003018,1.109118 -3.146638,2.900762 -0.156998,1.958526 1.21288,3.165826 3.592801,3.166406 1.284158,4.07e-4 1.312463,-0.0119 2.288136,-0.987578 z"
     id="path838"
     inkscape:connector-curvature="0" />
  <path
     style="fill:#ff00ff;fill-opacity:1;stroke:#ff00ff;stroke-width:0.00833898;stroke-miterlimit:4;stroke-dasharray:none;stroke-opacity:0"
     d="m 16.182218,39.586701 c -0.610758,-0.331394 -1.172049,-1.250351 -1.172049,-1.918904 0,-1.327264 1.416453,-2.359786 2.993406,-2.182041 1.045079,0.117796 2.00033,0.897881 2.19722,1.794312 0.166106,0.756278 -0.358436,1.83604 -1.106649,2.278021 -0.716849,0.423453 -2.158137,0.437614 -2.911928,0.02861 z"
     id="path840"
     inkscape:connector-curvature="0" />
  <path
     style="fill:#ff00ff;fill-opacity:1;stroke:#ff00ff;stroke-width:0.00833898;stroke-miterlimit:4;stroke-dasharray:none;stroke-opacity:0"
     d="m 21.111864,25.533473 c 0,-1.163762 0.04209,-1.290897 0.457628,-1.382123 0.530482,-0.116463 8.468321,-1.12845 8.847457,-1.127954 0.176714,2.31e-4 0.254237,0.394893 0.254237,1.29428 v 1.293946 L 29.4,25.747909 c -0.699153,0.07496 -2.85,0.345747 -4.779661,0.601753 l -3.508475,0.465466 z"
     id="path842"
     inkscape:connector-curvature="0" />
  <path
     style="fill:#ff00ff;fill-opacity:1;stroke:#ff00ff;stroke-width:0.00833898;stroke-miterlimit:4;stroke-dasharray:none;stroke-opacity:0"
     d="m 27.010169,36.329352 c -0.979118,-0.420296 -1.413821,-1.044729 -1.419206,-2.038635 -0.0056,-1.037453 0.617424,-1.776382 1.795372,-2.129303 1.610032,-0.482378 3.284851,0.648024 3.284851,2.217074 0,0.81986 -0.85295,1.800868 -1.792734,2.061885 -0.945053,0.26248 -1.006708,0.258817 -1.868283,-0.111021 z"
     id="path844"
     inkscape:connector-curvature="0" />
</svg>
