<?xml version="1.0" encoding="UTF-8" standalone="no"?>
<!-- Generator: Gravit.io -->

<svg
   xmlns:osb="http://www.openswatchbook.org/uri/2009/osb"
   xmlns:dc="http://purl.org/dc/elements/1.1/"
   xmlns:cc="http://creativecommons.org/ns#"
   xmlns:rdf="http://www.w3.org/1999/02/22-rdf-syntax-ns#"
   xmlns:svg="http://www.w3.org/2000/svg"
   xmlns="http://www.w3.org/2000/svg"
   xmlns:sodipodi="http://sodipodi.sourceforge.net/DTD/sodipodi-0.dtd"
   xmlns:inkscape="http://www.inkscape.org/namespaces/inkscape"
   style="isolation:isolate"
   viewBox="0 0 48 48"
   width="48"
   height="48"
   version="1.1"
   id="svg23"
   sodipodi:docname="folder.svg"
   inkscape:version="0.92.4 5da689c313, 2019-01-14">
  <metadata
     id="metadata27">
    <rdf:RDF>
      <cc:Work
         rdf:about="">
        <dc:format>image/svg+xml</dc:format>
        <dc:type
           rdf:resource="http://purl.org/dc/dcmitype/StillImage" />
      </cc:Work>
    </rdf:RDF>
  </metadata>
  <sodipodi:namedview
     pagecolor="#ffffff"
     bordercolor="#666666"
     borderopacity="1"
     objecttolerance="10"
     gridtolerance="10"
     guidetolerance="10"
     inkscape:pageopacity="0"
     inkscape:pageshadow="2"
     inkscape:window-width="1366"
     inkscape:window-height="700"
     id="namedview25"
     showgrid="false"
     inkscape:zoom="4.9166667"
     inkscape:cx="-15.661017"
     inkscape:cy="24"
     inkscape:window-x="0"
     inkscape:window-y="0"
     inkscape:window-maximized="1"
     inkscape:current-layer="svg23" />
  <defs
     id="defs5">
    <linearGradient
       id="linearGradient835"
       osb:paint="solid">
      <stop
         style="stop-color:#d99acc;stop-opacity:1;"
         offset="0"
         id="stop833" />
    </linearGradient>
    <clipPath
       id="_clipPath_G95qgm2GfWRO5ZK4Q3pbRBNnFMzRzFw0">
      <rect
         width="48"
         height="48"
         id="rect2" />
    </clipPath>
  </defs>
  <g
     clip-path="url(#_clipPath_G95qgm2GfWRO5ZK4Q3pbRBNnFMzRzFw0)"
     id="g21">
    <linearGradient
       id="_lgradient_34"
       x1="-0.04632800608827978"
       y1="0.15974072496964337"
       x2="0.8522006595636732"
       y2="0.7102370619103313"
       gradientTransform="matrix(45,0,0,30.763,1.229,15.445)"
       gradientUnits="userSpaceOnUse">
      <stop
         offset="3.0434782608695654%"
         stop-opacity="1"
         style="stop-color:#00ffd9"
         id="stop7" />
      <stop
         offset="98.26086956521739%"
         stop-opacity="1"
         style="stop-color:#00ffb8"
         id="stop9" />
    </linearGradient>
    <path
       d=" M 1.545 46.208 L 45.923 46.198 C 46.092 46.198 46.229 46.061 46.229 45.892 L 46.229 15.772 C 46.229 15.603 46.092 15.466 45.923 15.465 L 20.107 15.445 L 15.886 18.651 C 15.818 18.702 15.695 18.743 15.61 18.743 L 1.229 18.688 L 1.238 45.902 C 1.238 46.071 1.376 46.208 1.545 46.208 Z "
       fill="url(#_lgradient_34)"
       vector-effect="non-scaling-stroke"
       stroke-width="1"
       stroke="#00ffb8"
       stroke-linejoin="miter"
       stroke-linecap="square"
       stroke-miterlimit="3"
       id="path12" />
    <linearGradient
       id="_lgradient_35"
       x1="0"
       y1="0.5"
       x2="1"
       y2="0.5"
       gradientTransform="matrix(18.873,0,0,6.535,1.243,12.208)"
       gradientUnits="userSpaceOnUse">
      <stop
         offset="3.0434782608695654%"
         stop-opacity="1"
         style="stop-color:#00ffd9"
         id="stop14" />
      <stop
         offset="98.26086956521739%"
         stop-opacity="1"
         style="stop-color:#00ffb8"
         id="stop16" />
    </linearGradient>
    <path
       d=" M 20.116 15.456 L 15.887 12.3 C 15.819 12.249 15.695 12.208 15.61 12.208 L 1.554 12.208 C 1.385 12.208 1.247 12.346 1.247 12.515 L 1.243 18.683 L 15.8 18.743 L 20.116 15.456 Z "
       fill="url(#_lgradient_35)"
       vector-effect="non-scaling-stroke"
       stroke-width="1"
       stroke="#00ffb8"
       stroke-linejoin="miter"
       stroke-linecap="square"
       stroke-miterlimit="3"
       id="path19" />
  </g>
  <path
     style="fill:#ff00ff;stroke-width:0.20338982"
     d="M 1.179661,29.228007 V 12.244068 h 7.3550042 7.3550038 l 1.848386,1.384536 c 1.016612,0.761496 1.985674,1.470818 2.15347,1.576272 0.178266,0.112033 5.71606,0.234007 13.322034,0.293429 L 46.230508,15.6 v 15.254237 15.254238 l -22.525423,0.05174 -22.525424,0.05173 z"
     id="path3732"
     inkscape:connector-curvature="0" />
  <path
     style="fill:#ff00ff;stroke:#ff00ff;stroke-width:0.20338982;stroke-opacity:0"
     d="M 1.1796612,29.25865 V 12.244068 h 7.2854617 7.2854621 l 2.095381,1.566069 2.095381,1.56607 8.36492,0.147887 c 4.600707,0.08134 10.492886,0.154573 13.093733,0.162744 l 4.728814,0.01486 V 30.854237 46.006779 H 26.432158 c -10.83316,0 -20.9467193,0.05995 -22.4745757,0.133227 l -2.7779211,0.133226 z"
     id="path823"
     inkscape:connector-curvature="0" />
  <path
     style="fill:#ff00ff;stroke:#ff00ff;stroke-width:0.20338982;stroke-opacity:0"
     d="M 1.1796612,29.260074 V 12.244068 h 7.2794007 7.2794011 l 2.116462,1.562713 2.116461,1.562713 9.265154,0.151421 c 5.095836,0.08328 10.981257,0.158026 13.078714,0.1661 l 3.81356,0.01468 v 15.152542 15.152542 l -15.305085,4.07e-4 c -8.417797,1.71e-4 -18.531356,0.06077 -22.4745763,0.13465 l -7.1694915,0.134246 z"
     id="path825"
     inkscape:connector-curvature="0" />
  <path
     style="fill:#ff00ff;stroke:#ff00ff;stroke-width:1px;stroke-linecap:butt;stroke-linejoin:miter;stroke-opacity:0;fill-opacity:0"
     d="M 1.1796612,12.244068 H 15.889669 L 20.116,15.456"
     id="path827"
     inkscape:connector-curvature="0" />
  <path
     style="fill:none;stroke:#ff00ff;stroke-width:1px;stroke-linecap:butt;stroke-linejoin:miter;stroke-opacity:0"
     d="m 20.116,15.456 26.012814,0.245695 0.101694,30.40678 -45.050847,0.10347"
     id="path829"
     inkscape:connector-curvature="0" />
  <path
     style="fill:#ff00ff;stroke:#ff00ff;stroke-width:1px;stroke-linecap:butt;stroke-linejoin:miter;stroke-opacity:0;fill-opacity:0"
     d="m 1.179661,12.244068 2e-7,34.032014"
     id="path831"
     inkscape:connector-curvature="0" />
</svg>
