<?xml version="1.0" encoding="UTF-8" standalone="no"?>
<!-- Generator: Gravit.io -->

<svg
   xmlns:dc="http://purl.org/dc/elements/1.1/"
   xmlns:cc="http://creativecommons.org/ns#"
   xmlns:rdf="http://www.w3.org/1999/02/22-rdf-syntax-ns#"
   xmlns:svg="http://www.w3.org/2000/svg"
   xmlns="http://www.w3.org/2000/svg"
   xmlns:sodipodi="http://sodipodi.sourceforge.net/DTD/sodipodi-0.dtd"
   xmlns:inkscape="http://www.inkscape.org/namespaces/inkscape"
   style="isolation:isolate"
   viewBox="0 0 48 48"
   width="48"
   height="48"
   version="1.1"
   id="svg28"
   sodipodi:docname="user-home.svg"
   inkscape:version="0.92.4 5da689c313, 2019-01-14">
  <metadata
     id="metadata34">
    <rdf:RDF>
      <cc:Work
         rdf:about="">
        <dc:format>image/svg+xml</dc:format>
        <dc:type
           rdf:resource="http://purl.org/dc/dcmitype/StillImage" />
      </cc:Work>
    </rdf:RDF>
  </metadata>
  <defs
     id="defs32" />
  <sodipodi:namedview
     pagecolor="#ffffff"
     bordercolor="#666666"
     borderopacity="1"
     objecttolerance="10"
     gridtolerance="10"
     guidetolerance="10"
     inkscape:pageopacity="0"
     inkscape:pageshadow="2"
     inkscape:window-width="1366"
     inkscape:window-height="700"
     id="namedview30"
     showgrid="false"
     inkscape:zoom="4.9166667"
     inkscape:cx="-15.661017"
     inkscape:cy="24"
     inkscape:window-x="0"
     inkscape:window-y="0"
     inkscape:window-maximized="1"
     inkscape:current-layer="svg28" />
  <linearGradient
     id="_lgradient_14"
     x1="0"
     y1="0.5"
     x2="0.9074880558539661"
     y2="0.9200778838291643"
     gradientTransform="matrix(45,0,0,30.763,1.229,15.32)"
     gradientUnits="userSpaceOnUse">
    <stop
       offset="0%"
       stop-opacity="1"
       style="stop-color:rgb(0,255,216)"
       id="stop2" />
    <stop
       offset="83.88839793817618%"
       stop-opacity="1"
       style="stop-color:rgb(0,255,184)"
       id="stop4" />
  </linearGradient>
  <linearGradient
     id="_lgradient_15"
     x1="0"
     y1="0.5"
     x2="0.9074880558539661"
     y2="0.9200778838291643">
    <stop
       offset="0%"
       stop-opacity="1"
       style="stop-color:rgb(0,255,216)"
       id="stop7" />
    <stop
       offset="83.88839793817618%"
       stop-opacity="1"
       style="stop-color:rgb(0,255,184)"
       id="stop9" />
  </linearGradient>
  <path
     d=" M 1.545 46.083 L 45.923 46.073 C 46.092 46.073 46.229 45.936 46.229 45.767 L 46.229 15.647 C 46.229 15.478 46.092 15.341 45.923 15.34 L 20.107 15.32 L 15.886 18.526 C 15.818 18.577 15.695 18.618 15.61 18.618 L 1.229 18.563 L 1.238 45.777 C 1.238 45.946 1.376 46.083 1.545 46.083 Z "
     fill="url(#_lgradient_14)"
     vector-effect="non-scaling-stroke"
     stroke-width="1"
     stroke="url(#_lgradient_15)"
     stroke-linejoin="miter"
     stroke-linecap="square"
     stroke-miterlimit="3"
     id="path12" />
  <linearGradient
     id="_lgradient_16"
     x1="0"
     y1="0.5"
     x2="0.9074880558539661"
     y2="0.9200778838291643"
     gradientTransform="matrix(18.873,0,0,6.535,1.229,12.053)"
     gradientUnits="userSpaceOnUse">
    <stop
       offset="0%"
       stop-opacity="1"
       style="stop-color:rgb(0,255,216)"
       id="stop14" />
    <stop
       offset="83.88839793817618%"
       stop-opacity="1"
       style="stop-color:rgb(0,255,184)"
       id="stop16" />
  </linearGradient>
  <linearGradient
     id="_lgradient_17"
     x1="0"
     y1="0.5"
     x2="0.9074880558539661"
     y2="0.9200778838291643">
    <stop
       offset="0%"
       stop-opacity="1"
       style="stop-color:rgb(0,255,216)"
       id="stop19" />
    <stop
       offset="83.88839793817618%"
       stop-opacity="1"
       style="stop-color:rgb(0,255,184)"
       id="stop21" />
  </linearGradient>
  <path
     d=" M 20.102 15.3 L 15.873 12.145 C 15.805 12.094 15.681 12.053 15.597 12.053 L 1.54 12.053 C 1.371 12.053 1.234 12.19 1.233 12.359 L 1.229 18.527 L 15.786 18.588 L 20.102 15.3 Z "
     fill="url(#_lgradient_16)"
     vector-effect="non-scaling-stroke"
     stroke-width="1"
     stroke="url(#_lgradient_17)"
     stroke-linejoin="miter"
     stroke-linecap="square"
     stroke-miterlimit="3"
     id="path24" />
  <path
     d=" M 16.88 39.5 L 22.451 39.5 L 22.451 34.132 L 25.959 34.132 L 25.959 39.5 L 31.605 39.5 L 31.605 32.342 L 34.289 32.342 L 24.205 22.5 L 13.711 32.342 L 16.88 32.342 L 16.88 39.5 Z "
     fill="none"
     vector-effect="non-scaling-stroke"
     stroke-width="1"
     stroke="rgb(255,255,255)"
     stroke-linejoin="miter"
     stroke-linecap="square"
     stroke-miterlimit="3"
     id="path26" />
  <path
     style="fill:#ff00ff;fill-opacity:1;stroke:#ff00ff;stroke-width:0.00833898;stroke-miterlimit:4;stroke-dasharray:none;stroke-opacity:0"
     d="M 1.3830508,29.0169 V 12.02702 l 7.1069807,0.02143 7.1069805,0.02143 1.740477,1.312816 c 0.957263,0.722048 1.740477,1.348403 1.740477,1.391899 0,0.07376 -4.004414,3.052157 -4.677966,3.479366 -0.167797,0.106427 -2.044068,0.244736 -4.169492,0.307353 l -3.8644063,0.113849 4.6556103,0.03869 4.655611,0.03869 2.180304,-1.627118 2.180305,-1.627119 h 13.04544 13.045442 v 4.693536 4.693536 l -7.150628,10.5607 -7.150627,10.560702 H 16.605305 1.3830508 Z m 21.3111622,7.98988 0.05692,-2.593221 h 1.519348 1.519347 v 2.644068 2.644068 h 3.050847 3.050847 v -3.559322 -3.559322 h 1.322034 c 0.727119,0 1.322034,-0.0698 1.322034,-0.155109 0,-0.321262 -10.18923,-10.050257 -10.428079,-9.957055 -0.137439,0.05363 -2.623263,2.327926 -5.524056,5.053989 l -5.274169,4.95648 1.664,0.05907 1.663999,0.05907 v 3.556536 3.556533 l 3,-0.05629 3,-0.05628 z"
     id="path841"
     inkscape:connector-curvature="0" />
  <path
     style="fill:#ff00ff;fill-opacity:1;stroke:#ff00ff;stroke-width:0.00833898;stroke-miterlimit:4;stroke-dasharray:none;stroke-opacity:0"
     d="m 28.027119,46.06705 3.966101,-0.08216 7.016949,-10.384467 7.01695,-10.384466 0.107156,-4.909673 c 0.06096,-2.79287 0.126724,1.640085 0.152542,10.281714 0.02496,8.355261 -0.03231,15.239405 -0.127269,15.298093 -0.09496,0.05869 -5.105978,0.141899 -11.135594,0.184914 -6.029615,0.04301 -9.178191,0.04123 -6.996835,-0.004 z"
     id="path843"
     inkscape:connector-curvature="0" />
  <path
     style="fill:#ff00ff;fill-opacity:1;stroke:#ff00ff;stroke-width:0.00833898;stroke-miterlimit:4;stroke-dasharray:none;stroke-opacity:0"
     d="m 14.298305,18.549153 c -0.408138,-0.103854 -0.475482,-0.163443 -0.20339,-0.179968 0.481704,-0.02926 4.741888,-3.145955 4.914294,-3.595236 0.103435,-0.269548 0.171767,-0.262405 0.521923,0.05456 0.376061,0.340413 1.278942,0.371685 13.551141,0.469349 l 13.148235,0.104636 -13.166682,0.04791 -13.166682,0.04791 -2.18925,1.626477 c -2.224471,1.652643 -2.333497,1.698189 -3.409589,1.424371 z"
     id="path845"
     inkscape:connector-curvature="0" />
  <path
     style="fill:#ff00ff;fill-opacity:1;stroke:#ff00ff;stroke-width:0.00833898;stroke-miterlimit:4;stroke-dasharray:none;stroke-opacity:0"
     d="M 1.3830508,29.003789 V 11.998208 l 7.1694916,0.144306 7.1694916,0.144306 1.477065,1.120716 c 0.812385,0.616394 1.522203,1.193752 1.577372,1.283018 0.05517,0.08926 -0.925707,0.91977 -2.179725,1.845566 l -2.280032,1.683265 -2.449882,0.159465 c -1.347436,0.08771 -3.0905608,0.18974 -3.8736117,0.226743 -0.7830508,0.037 0.6579029,0.0852 3.2021187,0.107113 l 4.625848,0.03984 2.086017,-1.548052 c 2.420568,-1.796327 2.311658,-1.706185 2.061413,-1.706185 -0.106753,0 -1.142169,0.686441 -2.300927,1.525424 -1.6517,1.195892 -2.258302,1.525424 -2.807999,1.525424 -0.687978,0 -0.671553,-0.02001 0.873185,-1.063597 0.865894,-0.584978 2.006033,-1.451714 2.533642,-1.92608 0.527609,-0.474365 1.011841,-0.80993 1.076071,-0.7457 0.06423,0.06423 0.786052,0.244418 1.604046,0.400416 1.165643,0.222298 4.049273,0.283686 13.334721,0.283873 l 11.847458,2.4e-4 -0.0062,4.627119 -0.0062,4.627118 -7.166817,10.576272 -7.166815,10.576271 -15.199892,0.05214 -15.1998932,0.05214 z m 21.3559322,8.043646 v -2.633876 h 1.525424 1.525424 v 2.644068 2.644068 h 3.050847 3.050847 v -3.559322 -3.559322 h 1.322034 c 0.727119,0 1.322034,-0.06968 1.322034,-0.154855 0,-0.350026 -10.023722,-10.014637 -10.386754,-10.014637 -0.183104,0 -1.646756,1.324007 -7.067814,6.393479 l -3.929144,3.674318 1.691856,0.101695 1.691856,0.101695 0.05503,3.559322 0.05503,3.559322 3.046666,-0.06104 3.046666,-0.06104 z"
     id="path847"
     inkscape:connector-curvature="0" />
  <path
     style="fill:#ff00ff;fill-opacity:1;stroke:#ff00ff;stroke-width:0.00833898;stroke-miterlimit:4;stroke-dasharray:none;stroke-opacity:0"
     d="M 1.3830508,28.991024 V 11.975269 l 7.1348211,0.127139 7.1348211,0.12714 1.384352,1.026263 c 0.761394,0.564445 1.488335,1.151554 1.615424,1.304686 0.185293,0.223265 -0.218867,0.614203 -2.040062,1.973326 l -2.271132,1.694901 -3.174028,0.23212 -3.1740267,0.232119 3.9211557,0.02979 3.921155,0.02979 2.180539,-1.657107 c 2.642945,-2.008513 2.328405,-2.002503 -0.448188,0.0086 -1.588128,1.15027 -2.14376,1.445155 -2.723016,1.445155 -0.724011,0 -0.719272,-0.0058 0.921439,-1.128292 0.907056,-0.62056 2.050244,-1.481311 2.540418,-1.91278 0.69515,-0.611896 0.968089,-0.741473 1.240595,-0.588971 0.632377,0.353896 6.802186,0.564292 16.767936,0.571801 l 9.81356,0.0074 -0.0016,4.627119 -0.0016,4.627118 -7.167868,10.617342 -7.16786,10.617342 -15.20339,0.0098 -15.2033902,0.0098 z m 21.3559322,8.066603 v -2.644068 h 1.525424 1.525424 v 2.644068 2.644068 h 3.050847 3.050847 v -3.559322 -3.559322 h 1.322034 c 0.727119,0 1.322034,-0.08219 1.322034,-0.182642 0,-0.203425 -7.100807,-7.163805 -9.089845,-8.910084 l -1.27093,-1.115813 -0.527634,0.415038 c -1.028111,0.808713 -10.264133,9.478334 -10.264133,9.634686 0,0.08735 0.732203,0.158815 1.627118,0.158815 h 1.627119 v 3.559322 3.559322 h 3.050848 3.050847 z"
     id="path849"
     inkscape:connector-curvature="0" />
  <path
     style="fill:#ff00ff;fill-opacity:1;stroke:#ff00ff;stroke-width:0.00833898;stroke-miterlimit:4;stroke-dasharray:none;stroke-opacity:0"
     d="m 13.383051,18.577357 c 0,-0.09635 0.228813,-0.131445 0.508474,-0.07798 0.652763,0.124783 0.652763,0.253169 0,0.253169 -0.279661,0 -0.508474,-0.07883 -0.508474,-0.175185 z"
     id="path851"
     inkscape:connector-curvature="0" />
  <path
     style="fill:#ff00ff;fill-opacity:1;stroke:#ff00ff;stroke-width:0.00833898;stroke-miterlimit:4;stroke-dasharray:none;stroke-opacity:0"
     d=""
     id="path853"
     inkscape:connector-curvature="0" />
  <path
     style="fill:#ff00ff;fill-opacity:1;stroke:#ff00ff;stroke-width:0.00833898;stroke-miterlimit:4;stroke-dasharray:none;stroke-opacity:0"
     d=""
     id="path855"
     inkscape:connector-curvature="0" />
  <path
     style="fill:#ff00ff;fill-opacity:1;stroke:#ff00ff;stroke-width:0.00833898;stroke-miterlimit:4;stroke-dasharray:none;stroke-opacity:0"
     d=""
     id="path857"
     inkscape:connector-curvature="0" />
  <path
     style="fill:#ff00ff;fill-opacity:1;stroke:#ff00ff;stroke-width:0.00833898;stroke-miterlimit:4;stroke-dasharray:none;stroke-opacity:0"
     d=""
     id="path859"
     inkscape:connector-curvature="0" />
  <path
     style="fill:#ff00ff;fill-opacity:1;stroke:#ff00ff;stroke-width:0.00833898;stroke-miterlimit:4;stroke-dasharray:none;stroke-opacity:0"
     d=""
     id="path861"
     inkscape:connector-curvature="0" />
  <path
     style="fill:#ff00ff;fill-opacity:1;stroke:#ff00ff;stroke-width:0.00833898;stroke-miterlimit:4;stroke-dasharray:none;stroke-opacity:0"
     d=""
     id="path863"
     inkscape:connector-curvature="0" />
  <path
     style="fill:#ff00ff;fill-opacity:1;stroke:#ff00ff;stroke-width:0.00833898;stroke-miterlimit:4;stroke-dasharray:none;stroke-opacity:0"
     d="m 11.569492,18.679636 c 0.215198,-0.185136 1.610169,-0.287102 1.610169,-0.117696 0,0.104831 -0.381356,0.190602 -0.847458,0.190602 -0.466101,0 -0.809322,-0.03281 -0.762711,-0.07291 z"
     id="path865"
     inkscape:connector-curvature="0" />
  <path
     style="fill:#ff00ff;fill-opacity:1;stroke:#ff00ff;stroke-width:0.00833898;stroke-miterlimit:4;stroke-dasharray:none;stroke-opacity:0"
     d="M 1.3830508,28.994601 V 11.982422 l 7.1063575,0.102462 7.1063577,0.102462 1.412816,1.047364 c 2.152417,1.595653 2.152866,1.409565 -0.0073,3.030765 -1.039169,0.779887 -2.19446,1.602658 -2.567313,1.82838 -0.372854,0.225721 -0.586603,0.466837 -0.474999,0.535812 0.111604,0.06898 0.233616,0.04985 0.271136,-0.04251 0.03752,-0.09235 0.6367,-0.551549 1.33151,-1.020433 0.69481,-0.468884 1.799774,-1.298982 2.455475,-1.844662 0.93923,-0.781635 1.266512,-0.950548 1.542499,-0.796098 0.566859,0.31723 8.119789,0.559138 17.670938,0.565972 l 8.898306,0.0064 v 4.636323 4.636323 l -7.169492,10.612101 -7.169491,10.6121 -15.20339,0.0058 -15.2033902,0.0058 z m 21.3559322,8.063026 v -2.644068 h 1.525424 1.525424 v 2.644068 2.644068 h 3.050847 3.050847 v -3.559322 -3.559322 h 1.322034 c 0.727119,0 1.322034,-0.08255 1.322034,-0.183448 0,-0.199503 -6.511877,-6.577232 -8.898177,-8.714869 l -1.47445,-1.320805 -1.067923,0.92243 c -1.695791,1.464758 -9.603211,8.910703 -9.678094,9.113283 -0.03729,0.100875 0.672034,0.183409 1.576271,0.183409 h 1.644068 v 3.559322 3.559322 h 3.050848 3.050847 z M 9.3699726,18.619131 c -0.1377016,-0.05571 -0.4122779,-0.0591 -0.6101695,-0.0075 -0.1978918,0.05157 -0.085227,0.09715 0.2503664,0.101296 0.3355932,0.0041 0.4975045,-0.03805 0.3598031,-0.09376 z m 3.2692164,-0.120826 c -0.05154,-0.0839 -0.431523,-0.151141 -0.844413,-0.149428 -0.482591,0.002 -0.65475,0.06396 -0.482033,0.173469 0.328901,0.208541 1.45676,0.188099 1.326446,-0.02404 z m 5.57437,-1.566401 c 1.859959,-1.419977 2.283839,-1.908129 0.61017,-0.702689 -0.587288,0.422987 -1.45678,1.044106 -1.932204,1.380265 -0.475423,0.336159 -0.864406,0.696312 -0.864406,0.800339 0,0.114532 0.100288,0.113006 0.254237,-0.0039 0.13983,-0.106156 1.009322,-0.769476 1.932203,-1.474046 z"
     id="path867"
     inkscape:connector-curvature="0" />
  <path
     style="fill:#ff00ff;fill-opacity:1;stroke:#ff00ff;stroke-width:0.00833898;stroke-miterlimit:4;stroke-dasharray:none;stroke-opacity:0"
     d="M 1.3830508,29.023729 V 12.040678 l 5.7457628,0.01447 c 3.1601694,0.008 6.4411344,0.0779 7.2910334,0.155433 1.505709,0.137353 1.58368,0.171995 3.045606,1.353177 0.825185,0.666719 1.639983,1.241679 1.810662,1.277689 1.620219,0.341834 4.831647,0.467004 15.005241,0.584855 l 11.847458,0.13724 v 4.615968 4.615968 l -6.51957,9.639548 C 36.023481,39.73678 32.79721,44.506963 32.439753,45.035433 l -0.649922,0.960858 -15.20339,0.0052 -15.2033902,0.0052 z m 21.3559322,8.033898 v -2.644068 h 1.525424 1.525424 v 2.644068 2.644068 h 3.050847 3.050847 v -3.559322 -3.559322 h 1.220339 c 0.918021,0 1.220339,-0.07148 1.220339,-0.288523 0,-0.272069 -7.084877,-7.224429 -9.230127,-9.057486 l -0.992841,-0.848354 -0.532583,0.478787 c -4.445357,3.996321 -9.990211,9.30185 -9.990211,9.559017 0,0.08611 0.68644,0.156559 1.525423,0.156559 h 1.525424 v 3.559322 3.559322 h 3.050848 3.050847 z"
     id="path869"
     inkscape:connector-curvature="0" />
  <path
     style="fill:#ff00ff;fill-opacity:1;stroke:#ff00ff;stroke-width:0.00833898;stroke-miterlimit:4;stroke-dasharray:none;stroke-opacity:0"
     d="M 1.3830508,29.023729 V 12.040678 l 6.3559323,0.01212 c 3.4957629,0.0067 6.7809709,0.08221 7.3004619,0.167872 0.696544,0.114856 1.309405,0.442491 2.334264,1.247897 0.764354,0.600682 1.75796,1.219332 2.208013,1.374777 0.954535,0.329688 10.57802,0.635137 20.394549,0.647321 l 6.152543,0.0076 0.02533,4.423729 c 0.03429,5.988628 -0.05429,25.766597 -0.115695,25.832512 -0.02708,0.02907 -3.186103,0.112731 -7.020057,0.185914 l -6.970824,0.133062 3.218245,-4.762184 C 43.146366,29.650083 44.736209,27.2582 44.65839,27.18038 44.61278,27.13477 41.702107,31.352039 38.190232,36.552094 L 31.805001,46.00678 H 16.594026 1.3830508 Z m 21.3559322,8.033898 v -2.644068 h 1.525424 1.525424 v 2.644068 2.644068 h 3.050847 3.050847 v -3.559322 -3.559322 h 1.220339 c 0.837537,0 1.222188,-0.07975 1.22623,-0.254237 0.0061,-0.265225 -5.309047,-5.527023 -8.406596,-8.322145 l -1.790537,-1.615719 -1.362006,1.213054 c -2.85619,2.543831 -9.090819,8.499611 -9.090819,8.684225 0,0.10622 0.663559,0.220017 1.474576,0.252885 l 1.474576,0.05976 v 3.550411 3.550412 h 3.050848 3.050847 z M 45.925424,25.386659 c 0,-0.111864 -0.134378,-0.02573 -0.298617,0.191416 -0.164238,0.217144 -0.298615,0.486332 -0.298615,0.598196 0,0.111865 0.134377,0.02573 0.298615,-0.191416 0.164239,-0.217143 0.298617,-0.486331 0.298617,-0.598196 z"
     id="path871"
     inkscape:connector-curvature="0" />
  <path
     style="fill:#ff00ff;fill-opacity:1;stroke:#ff00ff;stroke-width:0.00833898;stroke-miterlimit:4;stroke-dasharray:none;stroke-opacity:0"
     d="M 1.3830508,29.023729 V 12.040678 l 6.4576272,0.0089 c 3.551695,0.0049 6.828864,0.08086 7.282597,0.168868 0.514213,0.09974 1.395281,0.587494 2.338983,1.294857 0.832707,0.624165 1.911682,1.240482 2.397721,1.369592 0.98583,0.261873 12.524053,0.597266 20.929852,0.608388 l 5.338983,0.0071 v 15.121011 15.121011 l -2.777921,0.133226 C 38.396648,46.111155 32.05091,46.0422 32.214445,45.752542 c 0.114828,-0.203389 0.08876,-0.203389 -0.13037,0 -0.214054,0.198684 -3.598294,0.254238 -15.487465,0.254238 H 1.3830508 Z M 34.148264,42.905085 c 0.90866,-1.370339 1.768944,-2.628814 1.911742,-2.79661 0.407349,-0.478662 1.753523,-2.644068 1.643746,-2.644068 -0.08322,0 -4.844307,6.92017 -5.282457,7.677966 -0.08085,0.13983 -0.09708,0.254237 -0.03607,0.254237 0.06101,0 0.854377,-1.121186 1.763039,-2.491525 z M 22.738983,37.057627 v -2.644068 h 1.525424 1.525424 v 2.644068 2.644068 h 3.050847 3.050847 v -3.559322 -3.559322 h 1.10664 c 0.608653,0 1.168481,-0.10006 1.244065,-0.222356 0.137953,-0.223211 -3.699071,-4.085381 -7.904117,-7.955918 l -2.197481,-2.022672 -0.955062,0.865036 c -5.314704,4.813734 -9.600407,9.006526 -9.361148,9.158202 0.148771,0.09431 0.842527,0.172881 1.54168,0.174594 l 1.271186,0.0031 v 3.559322 3.559322 h 3.050848 3.050847 z m 16.493774,-1.66299 c 0.16105,-0.300926 0.161671,-0.380996 0.0022,-0.28243 -0.122425,0.07566 -0.323738,0.326565 -0.447364,0.557563 -0.16105,0.300926 -0.161671,0.380996 -0.0022,0.282429 0.122425,-0.07566 0.323738,-0.326564 0.447364,-0.557562 z m 3.149634,-4.625931 c 1.317848,-1.948737 2.292248,-3.478982 2.165333,-3.400544 -0.195691,0.120945 -4.473342,6.310176 -5.00439,7.240735 -0.651428,1.141503 0.774286,-0.78696 2.839057,-3.840191 z m 3.536565,-5.394021 c 0.0036,-0.105278 -0.12791,-0.01375 -0.292149,0.20339 -0.164238,0.217144 -0.301526,0.480944 -0.305085,0.586223 -0.0036,0.105278 0.12791,0.01375 0.292149,-0.20339 0.164237,-0.217144 0.301526,-0.480944 0.305085,-0.586223 z"
     id="path873"
     inkscape:connector-curvature="0" />
  <path
     style="fill:#ff00ff;fill-opacity:1;stroke:#ff00ff;stroke-width:0.00833898;stroke-miterlimit:4;stroke-dasharray:none;stroke-opacity:0"
     d="M 1.3830508,29.023729 V 12.040678 h 6.6623598 c 3.6642974,0 6.9445744,0.08094 7.2895024,0.179862 0.344929,0.09892 1.213816,0.611774 1.930861,1.139666 0.717045,0.527891 1.571823,1.098467 1.899506,1.267947 0.854309,0.441852 4.642641,0.621636 16.6415,0.789762 l 10.322034,0.14463 V 30.65158 45.740616 l -2.593221,0.132256 c -1.426271,0.07274 -4.5893,0.132628 -7.028953,0.133082 -3.48973,6.1e-4 -4.405121,-0.0534 -4.292195,-0.253412 0.114828,-0.203389 0.08876,-0.203389 -0.13037,0 -0.214054,0.198684 -3.598294,0.254238 -15.487465,0.254238 H 1.3830508 Z M 34.528015,42.356923 c 0.931029,-1.371002 1.121725,-1.911785 0.24779,-0.702694 -0.901631,1.247406 -1.313974,1.911873 -1.186436,1.911873 0.06463,0 0.487021,-0.544131 0.938646,-1.209179 z m 2.220478,-3.316245 c 0.579553,-0.866949 1.007971,-1.576271 0.952039,-1.576271 -0.130269,0 -2.14799,2.984567 -2.14799,3.177256 0,0.190959 -0.01863,0.215909 1.195951,-1.600985 z m -14.00951,-1.983051 v -2.644068 h 1.525424 1.525424 v 2.644068 2.644068 h 3.050847 3.050847 v -3.559322 -3.559322 h 1.10664 c 0.608653,0 1.160185,-0.08663 1.225626,-0.192521 0.115909,-0.187544 -5.918608,-6.237785 -8.710512,-8.733208 l -1.395197,-1.247036 -1.839891,1.679603 c -3.18629,2.908703 -6.933165,6.456401 -7.732919,7.321851 -0.917656,0.993038 -0.782919,1.163655 0.922525,1.168197 l 1.169491,0.0031 v 3.559322 3.559322 h 3.050848 3.050847 z m 16.493774,-1.66299 c 0.16105,-0.300926 0.161671,-0.380996 0.0022,-0.28243 -0.122425,0.07566 -0.323738,0.326565 -0.447364,0.557563 -0.16105,0.300926 -0.161671,0.380996 -0.0022,0.282429 0.122425,-0.07566 0.323738,-0.326564 0.447364,-0.557562 z m 2.471968,-3.675993 c 2.347684,-3.446677 2.452885,-3.610169 2.323031,-3.610169 -0.05014,0 -1.112744,1.510169 -2.361342,3.355932 -1.248596,1.845762 -2.226122,3.355932 -2.172282,3.355932 0.05384,0 1.048608,-1.395763 2.210593,-3.101695 z m 4.043253,-6 c 0.252991,-0.322588 0.245797,-0.329781 -0.07679,-0.07679 -0.338796,0.265702 -0.446538,0.432723 -0.27914,0.432723 0.04223,0 0.202403,-0.160169 0.355932,-0.355932 z"
     id="path875"
     inkscape:connector-curvature="0" />
  <path
     style="fill:#ff00ff;fill-opacity:1;stroke:#ff00ff;stroke-width:0.00833898;stroke-miterlimit:4;stroke-dasharray:none;stroke-opacity:0"
     d="M 1.3830508,29.01622 V 12.025661 l 7.0906308,0.05836 7.0906304,0.05836 1.197505,0.866137 c 2.658002,1.922492 2.527698,1.879586 6.316579,2.079932 1.882814,0.09956 7.839401,0.245915 13.236858,0.325237 l 9.81356,0.144222 v 15.091836 15.091837 l -2.167233,0.132602 c -1.191978,0.07293 -4.355007,0.132604 -7.028953,0.132604 -3.830335,0 -4.831269,-0.05393 -4.718183,-0.254238 0.114828,-0.203389 0.08876,-0.203389 -0.13037,0 -0.214054,0.198684 -3.598294,0.254238 -15.487465,0.254238 H 1.3830508 Z m 35.4521772,9.887552 c 0.543027,-0.92488 0.283388,-0.759675 -0.374989,0.238601 -0.313548,0.475424 -0.440118,0.757037 -0.281264,0.625806 0.158851,-0.131229 0.454165,-0.520212 0.656253,-0.864407 z M 22.738983,37.057627 v -2.644068 h 1.525424 1.525424 v 2.644068 2.644068 h 3.050847 3.050847 v -3.559322 -3.559322 h 1.004946 c 0.563424,0 1.07136,-0.107461 1.156112,-0.244591 0.17184,-0.278044 -9.042521,-9.415431 -9.70762,-9.626525 -0.464418,-0.147401 -2.351174,1.499792 -7.402088,6.462242 -3.349063,3.290405 -3.393204,3.399868 -1.373383,3.40576 l 1.067796,0.0031 v 3.559322 3.559322 h 3.050848 3.050847 z m 17.960652,-3.84877 c 0.543027,-0.924881 0.283387,-0.759675 -0.37499,0.238601 -0.313547,0.475423 -0.440117,0.757037 -0.281263,0.625806 0.158851,-0.131229 0.454165,-0.520212 0.656253,-0.864407 z m 1.361382,-2.049535 c 0.455795,-0.671186 0.782953,-1.220339 0.727021,-1.220339 -0.05593,0 -0.474616,0.549153 -0.930411,1.220339 -0.455794,0.671186 -0.782953,1.220339 -0.727021,1.220339 0.05593,0 0.474616,-0.549153 0.930411,-1.220339 z"
     id="path877"
     inkscape:connector-curvature="0" />
  <path
     style="fill:#ff00ff;fill-opacity:1;stroke:#ff00ff;stroke-width:0.00833898;stroke-miterlimit:4;stroke-dasharray:none;stroke-opacity:0"
     d="M 1.3830508,29.024202 V 12.040678 h 7.0495918 7.0495914 l 1.676027,1.217714 c 0.921815,0.669743 1.929507,1.314087 2.239316,1.431877 0.830936,0.315921 6.720504,0.561096 17.324457,0.721194 l 9.40678,0.142024 v 15.094931 15.094931 l -1.881356,0.130747 c -1.034746,0.07191 -11.102543,0.131396 -22.372882,0.132189 l -20.4915252,0.0014 z m 21.3559322,8.033425 v -2.644068 h 1.525424 1.525424 v 2.644068 2.644068 h 3.050847 3.050847 v -3.559322 -3.559322 h 1.004946 c 0.55272,0 1.059284,-0.08792 1.125699,-0.195385 0.215227,-0.348242 -9.280267,-9.770717 -9.846433,-9.770717 -0.262607,0 -3.670824,3.076076 -7.068566,6.379711 -3.379041,3.285453 -3.512872,3.586391 -1.59491,3.586391 h 1.125027 v 3.559322 3.559322 h 3.050848 3.050847 z m 13.929909,2.110552 c 0.192265,-0.293435 0.249047,-0.471388 0.126179,-0.395453 -0.234791,0.145111 -0.708339,0.928969 -0.561211,0.928969 0.047,0 0.242766,-0.240083 0.435032,-0.533516 z m 4.177849,-6.189675 c 0.309069,-0.577501 0.09826,-0.483265 -0.308854,0.138063 -0.192264,0.293434 -0.249046,0.471388 -0.126179,0.395453 0.122866,-0.07594 0.318631,-0.316017 0.435033,-0.533516 z m 0.906897,-1.33575 c 0.192264,-0.293434 0.249047,-0.471387 0.126179,-0.395452 -0.234791,0.14511 -0.70834,0.928969 -0.561212,0.928969 0.047,0 0.242767,-0.240082 0.435033,-0.533517 z"
     id="path879"
     inkscape:connector-curvature="0" />
  <path
     style="fill:#ff00ff;fill-opacity:1;stroke:#ff00ff;stroke-width:0.00833898;stroke-miterlimit:4;stroke-dasharray:none;stroke-opacity:0"
     d="M 1.3830508,29.024155 V 12.040678 h 7.0368277 7.0368275 l 1.594586,1.123735 c 0.877022,0.618054 1.922736,1.260845 2.323809,1.428424 0.942104,0.393636 6.175035,0.63361 17.855407,0.818819 l 8.898306,0.141096 V 30.648065 45.74338 l -1.682236,0.129305 c -0.92523,0.07112 -10.993027,0.130576 -22.372881,0.132126 l -20.6906462,0.0028 z m 21.3559322,8.033472 v -2.644068 h 1.525424 1.525424 v 2.644068 2.644068 h 3.050847 3.050847 v -3.559322 -3.559322 l 0.864407,-0.0031 c 1.560342,-0.0056 1.51414,-0.169774 -0.713705,-2.535769 -2.174199,-2.309023 -7.600033,-7.427221 -7.873643,-7.427221 -0.365358,0 -9.139807,8.217874 -9.720144,9.10358 -0.418712,0.639035 -0.11129,0.855106 1.222746,0.859408 l 0.966102,0.0031 v 3.559322 3.559322 h 3.050848 3.050847 z"
     id="path881"
     inkscape:connector-curvature="0" />
  <path
     style="fill:#ff00ff;fill-opacity:1;stroke:#ff00ff;stroke-width:0.00833898;stroke-miterlimit:4;stroke-dasharray:none;stroke-opacity:0"
     d="M 1.3830508,29.023729 V 12.040678 h 7.0368277 7.0368275 l 1.634395,1.151789 c 0.898917,0.633484 1.991916,1.274966 2.428887,1.425514 1.008171,0.347344 7.048496,0.6119 18.1173,0.793509 l 8.491526,0.139322 v 15.096444 15.096445 l -1.556112,0.131538 c -0.85586,0.07235 -10.923657,0.131541 -22.372881,0.131541 H 1.3830508 Z m 21.3559322,8.033898 v -2.644068 h 1.525424 1.525424 v 2.644068 2.644068 h 3.050847 3.050847 v -3.548178 -3.548179 l 0.950203,-0.06199 c 0.523243,-0.03414 0.987277,-0.17463 1.032712,-0.312669 0.08566,-0.260242 -6.489838,-6.936818 -8.542115,-8.673427 l -1.169367,-0.989505 -0.864531,0.713131 c -1.616253,1.333211 -8.241999,7.648991 -8.701781,8.294695 -0.563855,0.791861 -0.341387,0.999799 1.07454,1.004365 l 0.966102,0.0031 v 3.559322 3.559322 h 3.050848 3.050847 z"
     id="path883"
     inkscape:connector-curvature="0" />
  <path
     style="fill:#ff00ff;fill-opacity:1;stroke:#ff00ff;stroke-width:0.00833898;stroke-miterlimit:4;stroke-dasharray:none;stroke-opacity:0"
     d="m 17.044068,35.744886 v -3.550029 l -1.365294,-0.06014 -1.365294,-0.06014 4.842434,-4.576271 c 2.663339,-2.516949 4.902298,-4.598244 4.975464,-4.6251 0.07317,-0.02686 2.283876,2.050544 4.91269,4.616445 l 4.779661,4.665273 -1.169492,0.01067 -1.169491,0.01067 v 3.559322 3.559322 H 28.840678 26.19661 V 36.650847 34.00678 h -1.932203 -1.932204 v 2.644067 2.644068 h -2.644067 -2.644068 z"
     id="path885"
     inkscape:connector-curvature="0" />
</svg>
